<?xml version="1.0" encoding="utf-8"?><svg xmlns="http://www.w3.org/2000/svg" xmlns:xlink="http://www.w3.org/1999/xlink"><symbol viewBox="0 0 13.1 13.1" id="dots" xmlns="http://www.w3.org/2000/svg"><circle cx="6.6" cy="12.1" r="1"/></symbol><symbol viewBox="0 0 24 24" id="facebook" xmlns="http://www.w3.org/2000/svg"><style>.bst0{fill:#837272}</style><path class="bst0" d="M12.8 10.1V8.6c0-.4.3-.8.8-.8h.8V6h-1.6c-1.3 0-2.3 1-2.3 2.3v1.9H9V12h1.5v6h2.3v-6h1.5l.7-1.9h-2.2z"/><path d="M12 0c6.6 0 12 5.4 12 12s-5.4 12-12 12S0 18.6 0 12 5.4 0 12 0z"/><path class="bst0" d="M12 24C5.4 24 0 18.6 0 12S5.4 0 12 0s12 5.4 12 12-5.4 12-12 12zm0-23C5.9 1 1 5.9 1 12s4.9 11 11 11 11-4.9 11-11S18.1 1 12 1z"/></symbol><symbol viewBox="0 0 24 24" id="instagram" xmlns="http://www.w3.org/2000/svg"><style>.cst0{fill:#837272}</style><path class="cst0" d="M9.5 18c-.5 0-1-.1-1.5-.3-.8-.3-1.4-.9-1.8-1.8-.2-.5-.3-1-.3-1.5v-5c0-.5.1-1 .3-1.5.2-.4.4-.8.7-1.1.3-.3.7-.5 1.1-.7.5-.2 1-.3 1.5-.3h5c.5 0 1 .1 1.5.3.4.2.8.4 1.1.7.3.3.5.7.7 1.1.2.5.3 1 .3 1.5v5c0 .5-.1 1-.3 1.5-.3.8-.9 1.4-1.8 1.8-.5.2-1 .3-1.5.3h-5zm-.6-6c0 1.7 1.4 3.1 3.1 3.1s3.1-1.4 3.1-3.1c0-1.7-1.4-3.1-3.1-3.1-1.7 0-3.1 1.4-3.1 3.1zm5.6-3.2c0 .4.3.7.7.7s.7-.3.7-.7-.3-.7-.7-.7c-.4 0-.7.3-.7.7zM10 12c0-1.1.9-2 2-2s2 .9 2 2-.9 2-2 2-2-.9-2-2z"/><path class="cst0" d="M12 24C5.4 24 0 18.6 0 12S5.4 0 12 0s12 5.4 12 12-5.4 12-12 12zm0-23C5.9 1 1 5.9 1 12s4.9 11 11 11 11-4.9 11-11S18.1 1 12 1z"/></symbol><symbol viewBox="0 0 73 73" id="play-button" xmlns="http://www.w3.org/2000/svg"><style/><path d="M30.7 27.7v17.5l13.7-8.7-13.7-8.8z"/><path d="M36.5 73C16.4 73 0 56.6 0 36.5S16.4 0 36.5 0 73 16.4 73 36.5 56.6 73 36.5 73zm0-72C16.9 1 1 16.9 1 36.5S16.9 72 36.5 72 72 56.1 72 36.5 56.1 1 36.5 1z"/></symbol><symbol viewBox="0 0 24 24" id="youtube" xmlns="http://www.w3.org/2000/svg"><style>.est1{fill:#837272}</style><path class="est1" d="M12 24C5.4 24 0 18.6 0 12S5.4 0 12 0s12 5.4 12 12-5.4 12-12 12zm0-23C5.9 1 1 5.9 1 12s4.9 11 11 11 11-4.9 11-11S18.1 1 12 1z"/><path class="est1" d="M17.9 8.4c-.1-.6-.5-1-1.1-1.3-1.6-.2-3.2-.3-4.7-.3-1.6 0-3.2.1-4.7.3-.5.2-.9.7-1.1 1.3-.2 1.2-.3 2.3-.3 3.5 0 1.2.1 2.3.3 3.5.1.6.5 1 1.1 1.3 1.6.2 3.2.3 4.7.3 1.6 0 3.2-.1 4.7-.3.5-.2.9-.7 1.1-1.3.2-1.2.3-2.3.3-3.5-.1-1.2-.1-2.4-.3-3.5zm-7 5.6V9.7l3.2 2.2-3.2 2.1z"/></symbol></svg>