<?xml version="1.0" encoding="utf-8"?><svg xmlns="http://www.w3.org/2000/svg" xmlns:xlink="http://www.w3.org/1999/xlink"><symbol viewBox="0 0 512 512" id="bleach" xmlns="http://www.w3.org/2000/svg"><path d="M505.618 408.764L293.606 57.81c-17.166-28.611-58.552-28.495-75.634-.027L6.377 408.776l-.016.027c-17.646 29.409 3.506 66.806 37.825 66.806h423.631c34.267-.001 55.506-37.337 37.801-66.845zm-381.591 36.849H44.186c-10.966 0-17.742-11.938-12.12-21.35l211.611-351.02c5.464-9.108 18.695-9.184 24.229.039l39.509 65.402L127.345 438.8a44.824 44.824 0 00-3.318 6.813zm34.214 0l166.726-277.877 66.727 110.456-100.453 167.421h-133zm309.575 0H326.222l83.022-138.37 70.675 116.993c5.646 9.409-1.117 21.377-12.103 21.377z"/></symbol><symbol viewBox="0 0 469.333 469.333" id="chef" xmlns="http://www.w3.org/2000/svg"><path d="M128 224a10.66 10.66 0 00-10.667-10.667A10.66 10.66 0 00106.666 224c0 28.01 30.896 66.469 34.417 70.771a10.69 10.69 0 0015.02 1.479c4.552-3.74 5.208-10.458 1.479-15.021C146.146 267.292 128 239.437 128 224zm224-10.667A10.66 10.66 0 00341.333 224c0 15.385-18.146 43.271-29.583 57.24-3.729 4.552-3.063 11.271 1.49 15.01a10.617 10.617 0 006.76 2.417 10.67 10.67 0 008.25-3.896c3.521-4.302 34.417-42.76 34.417-70.771A10.66 10.66 0 00352 213.333zm-117.333 0A10.66 10.66 0 00224 224v64c0 5.896 4.771 10.667 10.667 10.667s10.667-4.771 10.667-10.667v-64a10.662 10.662 0 00-10.667-10.667z"/><path d="M352 42.667c-6.464 0-13.219.855-20.234 2.158C308.273 17.439 273.496 0 234.667 0s-73.607 17.439-97.099 44.824c-7.016-1.302-13.771-2.158-20.234-2.158C52.635 42.667 0 95.302 0 160c0 44.333 25 84.635 64.25 104.562l-.208 161.198c-.01 11.635 4.51 22.573 12.729 30.802 8.229 8.24 19.156 12.771 30.792 12.771h254.25c24 0 43.521-19.521 43.521-43.521V264.406c39.104-19.979 64-60.219 64-104.406C469.333 95.302 416.698 42.667 352 42.667zm32 383.146c0 12.229-9.958 22.188-22.188 22.188h-254.25c-5.927 0-11.5-2.313-15.698-6.51-4.188-4.198-6.5-9.771-6.49-15.708L85.43 384H384v41.813zm6.604-178.011c-.563.229-1.094.5-1.594.823a10.464 10.464 0 00-3.271 3.208 10.527 10.527 0 00-1.625 4.281 10.312 10.312 0 00-.115 1.792v104.76H85.457l.137-104.615a10.69 10.69 0 00-4.959-9.261 11.165 11.165 0 00-1.677-.865c-35.01-15.31-57.625-49.79-57.625-87.925 0-52.938 43.063-96 96-96 2.069 0 4.253.25 6.396.419-10.792 18.756-17.063 40.43-17.063 63.581a10.66 10.66 0 0010.667 10.667A10.66 10.66 0 00128 128c0-58.813 47.854-106.667 106.667-106.667S341.333 69.187 341.333 128A10.66 10.66 0 00352 138.667 10.66 10.66 0 00362.667 128c0-23.151-6.271-44.824-17.063-63.581C347.747 64.25 349.931 64 352 64c52.938 0 96 43.063 96 96 0 38-22.521 72.437-57.396 87.802z"/></symbol><symbol viewBox="0 0 60 60" id="cloud-computing" xmlns="http://www.w3.org/2000/svg"><path d="M50.975 17.694c-.527-9-7.946-16.194-16.891-16.194-5.43 0-10.688 2.663-13.946 7.008-.075-.039-.155-.066-.231-.103a9.109 9.109 0 00-.597-.266c-.118-.047-.238-.089-.358-.131a8.679 8.679 0 00-.6-.185c-.12-.032-.239-.065-.36-.093a8.686 8.686 0 00-.67-.121c-.105-.016-.209-.036-.315-.048A8.81 8.81 0 0016 7.5c-4.962 0-9 4.037-9 9 0 .129.008.255.016.381C2.857 19.148 0 23.899 0 28.654 0 35.737 5.762 41.5 12.845 41.5H18a1 1 0 100-2h-5.155C6.865 39.5 2 34.635 2 28.654c0-4.154 2.705-8.466 6.432-10.253L9 18.13v-.63c0-.123.008-.249.015-.375l.009-.173-.012-.202A3.458 3.458 0 019 16.5c0-3.859 3.14-7 7-7 .309 0 .614.027.917.067.078.01.156.023.234.036.267.044.53.102.789.176.035.01.071.017.106.027a6.978 6.978 0 011.043.421A6.999 6.999 0 0123 16.5a1 1 0 102 0 8.98 8.98 0 00-3.2-6.871C24.666 5.879 29.388 3.5 34.084 3.5c7.744 0 14.177 6.135 14.848 13.887-1.022-.072-2.553-.109-4.083.125a1 1 0 10.301 1.977c2.224-.336 4.543-.021 4.684-.002C54.49 20.372 58 24.661 58 29.472 58 35.001 53.501 39.5 47.972 39.5H44a1 1 0 100 2h3.972C54.604 41.5 60 36.104 60 29.472c0-5.489-3.827-10.412-9.025-11.778z"/><path d="M39.448 47.534A10.95 10.95 0 0042 40.5c0-6.065-4.935-11-11-11s-11 4.935-11 11 4.935 11 11 11c2.673 0 5.125-.96 7.034-2.552l9.259 9.259a.997.997 0 001.414 0 .999.999 0 000-1.414l-9.259-9.259zM31 49.5c-4.962 0-9-4.037-9-9s4.038-9 9-9 9 4.037 9 9-4.038 9-9 9z"/></symbol><symbol viewBox="0 0 512 512" id="password" xmlns="http://www.w3.org/2000/svg"><path d="M230.792 354.313l-6.729 60.51a10.67 10.67 0 0010.604 11.844h42.667a10.67 10.67 0 0010.604-11.844l-6.729-60.51c10.927-7.948 17.458-20.521 17.458-34.313 0-23.531-19.135-42.667-42.667-42.667S213.333 296.469 213.333 320c0 13.792 6.532 26.365 17.459 34.313zM256 298.667c11.76 0 21.333 9.573 21.333 21.333 0 8.177-4.646 15.5-12.125 19.125a10.673 10.673 0 00-5.958 10.781l6.167 55.427h-18.833l6.167-55.427c.5-4.49-1.885-8.802-5.958-10.781-7.479-3.625-12.125-10.948-12.125-19.125-.001-11.76 9.572-21.333 21.332-21.333z"/><path d="M437.333 192h-32v-42.667C405.333 66.99 338.344 0 256 0S106.667 66.99 106.667 149.333V192h-32A10.66 10.66 0 0064 202.667v266.667C64 492.865 83.135 512 106.667 512h298.667C428.865 512 448 492.865 448 469.333V202.667A10.66 10.66 0 00437.333 192zM128 149.333c0-70.583 57.417-128 128-128s128 57.417 128 128V192h-21.333v-42.667c0-58.813-47.854-106.667-106.667-106.667S149.333 90.521 149.333 149.333V192H128v-42.667zm213.333 0V192H170.667v-42.667C170.667 102.281 208.948 64 256 64s85.333 38.281 85.333 85.333zm85.334 320c0 11.76-9.573 21.333-21.333 21.333H106.667c-11.76 0-21.333-9.573-21.333-21.333v-256h341.333v256z"/></symbol><symbol viewBox="0 0 511.999 511.999" id="search" xmlns="http://www.w3.org/2000/svg"><path d="M508.874 478.708L360.142 329.976c28.21-34.827 45.191-79.103 45.191-127.309C405.333 90.917 314.416 0 202.666 0S0 90.917 0 202.667s90.917 202.667 202.667 202.667c48.206 0 92.482-16.982 127.309-45.191l148.732 148.732c4.167 4.165 10.919 4.165 15.086 0l15.081-15.082c4.165-4.166 4.165-10.92-.001-15.085zM202.667 362.667c-88.229 0-160-71.771-160-160s71.771-160 160-160 160 71.771 160 160-71.771 160-160 160z"/></symbol></svg>