<?xml version="1.0" encoding="utf-8"?>
<!-- Generator: Adobe Illustrator 21.0.0, SVG Export Plug-In . SVG Version: 6.00 Build 0)  -->
<svg version="1.1" id="Слой_1" xmlns="http://www.w3.org/2000/svg" xmlns:xlink="http://www.w3.org/1999/xlink" x="0px" y="0px"
	 viewBox="0 0 16 16" style="enable-background:new 0 0 16 16;" xml:space="preserve">
<style type="text/css">
	.st0{fill:#FFFFFF;}
</style>
<g>
	<path class="st0" d="M16,4.7c-0.1-2.9-1.7-4.5-4.7-4.6C10.4,0,10.2,0,8,0S5.6,0,4.7,0C1.8,0.2,0.2,1.8,0,4.7C0,5.6,0,5.8,0,8
		s0,2.4,0,3.3c0.1,2.9,1.7,4.5,4.7,4.7c0.9,0,1.1,0,3.3,0s2.4,0,3.3,0c2.9-0.1,4.5-1.7,4.7-4.7c0-0.9,0-1.1,0-3.3
		C16,5.8,16,5.6,16,4.7z M8,10.7C8,10.7,8,10.7,8,10.7c-1.5,0-2.7-1.2-2.7-2.7c0-1.5,1.2-2.7,2.7-2.7s2.7,1.2,2.7,2.7
		C10.7,9.5,9.5,10.7,8,10.7z M12.3,4.7c-0.5,0-1-0.4-1-1s0.4-1,1-1c0,0,0,0,0,0c0.5,0,1,0.4,1,1C13.2,4.3,12.8,4.7,12.3,4.7z"/>
</g>
</svg>
