<svg xmlns="http://www.w3.org/2000/svg" width="29.694" height="29.694" viewBox="0 0 29.694 29.694">
  <g id="Social_Media_Small_Dark_Instagram" data-name="Social Media / Small / Dark / Instagram" transform="translate(0 0)">
    <path id="Shape" d="M11.413,13.975H2.562A2.565,2.565,0,0,1,0,11.413V2.562A2.565,2.565,0,0,1,2.562,0h8.851a2.565,2.565,0,0,1,2.562,2.562v8.851A2.565,2.565,0,0,1,11.413,13.975ZM6.987,2.386a4.6,4.6,0,1,0,4.6,4.6A4.606,4.606,0,0,0,6.987,2.386Zm4.748-1.225A1.088,1.088,0,1,0,12.824,2.25,1.09,1.09,0,0,0,11.736,1.162Z" transform="translate(7.86 7.9)" fill="#fff"/>
    <path id="Shape-2" data-name="Shape" d="M2.657,0A2.656,2.656,0,1,0,5.313,2.656,2.66,2.66,0,0,0,2.657,0Z" transform="translate(12.191 12.231)" fill="#fff"/>
    <path id="Shape-3" data-name="Shape" d="M14.847,29.694A14.847,14.847,0,1,1,29.694,14.847,14.864,14.864,0,0,1,14.847,29.694ZM10.423,5.956a4.511,4.511,0,0,0-4.506,4.506v8.851a4.511,4.511,0,0,0,4.506,4.506h8.85a4.511,4.511,0,0,0,4.506-4.506V10.462a4.511,4.511,0,0,0-4.506-4.506Z" transform="translate(0 0)" fill="#fff"/>
  </g>
</svg>
