<svg xmlns="http://www.w3.org/2000/svg" width="288.05" height="72.216" viewBox="0 0 288.05 72.216">
  <g id="Group_77" data-name="Group 77" transform="translate(-302.95 -170.663)">
    <path id="Path_141" data-name="Path 141" d="M376.552,173.857c-14.235,17.03-28.7,34.4-38.89,54.126-1.138,2.7-2.163,5.4-3.074,8.149-.285,1.967-.512,3.934-.74,5.9a.892.892,0,0,1-1.481.617l-.968-.955a.826.826,0,0,1-.8-.168,1.372,1.372,0,0,1-.57-.788.43.43,0,0,1-.4-.224c-1.537-1.911-1.708-4.1-1.367-6.465l.342-1.8c-.114-6.632,1.594-13.1,3.359-19.559-9.4,9.723-24.085,23.774-24.654,24.9a1.449,1.449,0,0,1-2.45,0c-.854-1.631-.911-2.08-1.764-3.765a1.423,1.423,0,0,1,.4-1.742c3.3-6.914,16.74-36.758,16.74-36.758l5.751-13.658c1.537-3.878-3.7.843-6.149,2.529a11.765,11.765,0,0,0-3.644,15.007,1.829,1.829,0,0,1-.912,2.529c-.057.731-1.2,1.237-1.537.394l-.285-.563a1.311,1.311,0,0,1-.455-.505,14.513,14.513,0,0,1-1.253-3.148c-.683-1.518-1.366-2.979-1.935-4.5-.171-.056-.285-.225-.4-.45-2.733-8.375,8.655-13.827,14.861-16.075a1.284,1.284,0,0,1,.456-.056,1.505,1.505,0,0,1,1.708.337,6.168,6.168,0,0,1,4.669,5,8.324,8.324,0,0,1-1.139,5.34c-1.537,4.271-3.872,8.543-5.637,12.646l-12.527,29.508c7.516-6.407,15.146-15.962,22.093-24.112.512-2.192,1.025-4.44,1.366-6.632a.815.815,0,0,1,.342-.505,2.7,2.7,0,0,1-.057-.675.914.914,0,0,1,.855-.843.834.834,0,0,1,.854.843v.281c.114,0,.171.056.284.056a.708.708,0,0,1,1.082.056l1.708,2.192a1.969,1.969,0,0,1,.911,2.023c-1.651,6.8-3.245,13.6-4.839,20.4,10.249-18.6,23.914-35.127,37.579-51.483C375.47,169.473,378.032,172.059,376.552,173.857Z" transform="translate(0 0)" fill="#232d29"/>
    <path id="Path_142" data-name="Path 142" d="M401.986,207.178c-1.025,1.854-8.313,12.7-13.437,16.805a.954.954,0,0,1-.342.336,15.718,15.718,0,0,1-2.505,1.406,2.6,2.6,0,0,1-1.594.056,1.105,1.105,0,0,1-1.025-.394.2.2,0,0,1-.056-.113.374.374,0,0,1-.228-.28,22.648,22.648,0,0,0-2.107-2.53c-1.423-1.4-.057-3.766-.113-3.934.455-1.236,8.142-17.592,8.085-17.535-1.651.337-14.121,12.533-15.658,14.669a.9.9,0,0,1-.228.394c-1.2,2.136-3.473,6.071-4.555,8.038a.707.707,0,0,1-.911-.056c-2.847-2.08-3.417-2.922-2.164-6.3.683-1.854,17.48-34.284,20.84-40.411a.367.367,0,0,1,.342,0c1.935.113,6.548-5.534,6.605-4.073a7.322,7.322,0,0,1-.74,3.541c-1.064,1.934-13.211,25.768-16.57,32.231,6.376-6.745,11.5-9.5,15.6-12.759a.827.827,0,0,1,.8-.169.969.969,0,0,1,.968.338,28.468,28.468,0,0,1,1.765,2.53,2.088,2.088,0,0,1,.569,1.4,2.937,2.937,0,0,1-.114,2.08c-.569,1.461-1.936,2.753-2.733,4.1a39.307,39.307,0,0,0-2.562,5.114,87.275,87.275,0,0,1-3.246,9.162.427.427,0,0,0,.114.282C387.295,222.073,403.182,205.155,401.986,207.178Z" transform="translate(-15.935 -0.61)" fill="#232d29"/>
    <path id="Path_143" data-name="Path 143" d="M427.838,224a14.957,14.957,0,0,1-3.644,5c-2.335,2.3-6.321,5.4-9.338,5.226-.285.282-6.776-2.247-7.345-5.789-.57-3.71,1.821-8.038,3.3-11.3a80.555,80.555,0,0,1,3.814-7.7c.912-1.574,1.823-4.159,3.36-5.227,1.708-1.236,3.473,0,5.067,1.181a7.413,7.413,0,0,1,.626,2.192c.057.225.285.562.57.394a4.767,4.767,0,0,1,1.708-.225,9.732,9.732,0,0,1,1.195.336,4.215,4.215,0,0,1,2.335,2.474,40.443,40.443,0,0,1,.17,6.463c-.113.9-.8,3.766-.17,3.6a57,57,0,0,0,6.776-2.416c.17.112.17.28-.114.562C434.044,221.3,431.084,223.494,427.838,224Zm-3.7-.056c-.114,0-.456-.337-.57-.337-3.871-1.348-5.637-4.778-5.352-8.6a25.9,25.9,0,0,0-3.53,6.519c-.626,1.631-2.107,5.284-.911,6.519a.443.443,0,0,0,.228.225c1.025,1.349,2.22,2.642,4.1,2.023,2.79-.955,4.612-3.428,6.321-5.677A.46.46,0,0,0,424.137,223.943Zm-1.879-11.353c-1.139,2.585-1.651,5.564.4,7.7a2.212,2.212,0,0,0,1.935.9c.968-.225,1.139-1.35,1.253-2.192,0-.113.227-2.529.341-3.6C426.358,213.152,424.251,207.982,422.258,212.591Z" transform="translate(-27.041 -8.551)" fill="#232d29"/>
    <path id="Path_144" data-name="Path 144" d="M457.381,233.59c1.708,1.236,6.889-3.317,7.914-4.5a34.259,34.259,0,0,1-5.353,5.452,1.885,1.885,0,0,1-.341.337c-7.687,4.328-8.712-7.251-5.751-11.971.114-.394,1.935-4.5,4.328-9.724-1.482,1.855-10.363,13.04-10.534,13.153a14.121,14.121,0,0,1-2.562,1.4,2.559,2.559,0,0,1-1.594.056,7.424,7.424,0,0,1-1.992-.9l.91.394-.228-.281c-1.993-2.585-1.993-8.038,1.48-15.288.456-1.236,10.307-21.414,10.25-21.358-.285.056,1.708-3.99,2.562-4.721a.879.879,0,0,1,.8-.169.93.93,0,0,1,.967.338c.57.843,1.253,1.63,1.765,2.529a2.461,2.461,0,0,1,.627,1.4,3.3,3.3,0,0,1-.171,2.08c-.569,1.462-9.4,17.986-10.192,19.334-12.812,26.866,6.433,2.136,11.957-7.025,3.985-8.824,7.8-17.311,7.8-17.311-.285.056,1.708-3.99,2.562-4.722a.88.88,0,0,1,.8-.168.935.935,0,0,1,.969.337c.568.843,1.252,1.629,1.764,2.53a2.459,2.459,0,0,1,.627,1.4,3.314,3.314,0,0,1-.171,2.08c-.57,1.461-10.534,21.527-11.331,22.875C457.438,225.329,455.729,232.353,457.381,233.59Z" transform="translate(-35.687 -2.91)" fill="#232d29"/>
    <path id="Path_145" data-name="Path 145" d="M504.429,208.372a1.65,1.65,0,0,1,.057,1.293c-2.107,5.508-5.409,14.614-7.8,20.009-1.936,4.44-3.814,9.162-7.117,12.759-1.537,2.866-4.555,6.913-7.459,5.958-5.239-1.631-6.776-7.307-8.6-11.691a.886.886,0,0,1,1.081-1.124l1.082.337a19.867,19.867,0,0,1,2.334,3.767c.456.955.854,2.529,1.765,3.147,1.765,1.237,2.9-1.63,3.473-2.922a105.849,105.849,0,0,0,10.534-19.9c-2.163,2.249-4.726,4.665-7.8,7.419a.464.464,0,0,1-.285.281,16.164,16.164,0,0,1-2.505,1.462,2.4,2.4,0,0,1-1.651,0,.97.97,0,0,1-.968-.338c0-.056-.057-.056-.114-.113l-.227-.281a14.824,14.824,0,0,0-2.05-2.529c-1.423-1.405-.057-3.822-.114-3.934.456-1.237,4.726-12.983,4.669-12.927-.285.056,1.651-4.047,2.562-4.722a.83.83,0,0,1,.8-.169.968.968,0,0,1,.967.338,28.138,28.138,0,0,1,1.765,2.53,2.082,2.082,0,0,1,.57,1.4,3.286,3.286,0,0,1-.114,2.08c-.568,1.461-1.879,2.753-2.733,4.1a39.018,39.018,0,0,0-2.562,5.114c-.912,3.091-1.537,3.934.17,4.553,0,.113,0,.336.057.281,8.143-4.271,11.444-11.129,13.495-15.119.912-2.023,1.823-3.71,2.505-4.1,1.481-.843,2.506,1.743,3.758,2.3A.876.876,0,0,1,504.429,208.372Z" transform="translate(-44.13 -8.661)" fill="#232d29"/>
    <path id="Path_146" data-name="Path 146" d="M582.13,233.15l-7.573,4.721a1.348,1.348,0,0,1-1.025.168,1.121,1.121,0,0,1-.968-.281.207.207,0,0,1-.17-.056c-14.406-3.484-21.922-17.311-27.559-29.9-2.847,7.195-5.808,14.388-8.769,21.527a1.5,1.5,0,0,1-2.107.843c-3.132-1.574-2.505-4.609-1.879-7.363,1.082-5.677,7.175-19.278,7.8-20.29H540a2.948,2.948,0,0,1,.285-.618c0-.056.057-.113.057-.169l1.537-3.429c.968-3.2,3.132-7.813,4.5-11.635a1.221,1.221,0,0,1,0-.9c.4-1.292,1.138-5.283,2.619-7.306v-.056h.056c.855-1.124,1.937-1.63,3.3-.507,3.93,3.036,1.31,7.982-.114,11.467-.057,0-.057,0-.057.056l-1.138,2.642c-.74,1.967-2.733,6.857-3.474,8.824,2.562-3.935,4.328-4.272,5.865-4.834,3.473-1.349,6.833-2.753,10.249-4.272a210.523,210.523,0,0,0,19.359-10.116,1.414,1.414,0,0,1,1.935.505l.114.225c-.967,2.922-2.164,5.62-4.612,7.644-12.859,5.156-20.6,8.643-32.113,14.388,2.391.113,3.644.449,4.612,3.372,1.366,4.272,10.079,19.56,14.633,21.189,4.669,1.631,5.409,2.868,10.249,3.429h.114l2.733-1.685C582.245,229.778,583.668,232.194,582.13,233.15Z" transform="translate(-59.173 -1.71)" fill="#232d29"/>
    <path id="Path_147" data-name="Path 147" d="M625.451,210.227c-1.367,2.36-13.152,20.009-17.309,18.21a1,1,0,0,1-.8-.394c-1.48-2.08-3.131-2.811-2.619-5.564a23.661,23.661,0,0,1,2.562-6.914,70.643,70.643,0,0,0-9.793,9.05.788.788,0,0,1-.512.28.924.924,0,0,1-.513.169c-1.025.056-2.049-1.012-2.676-1.686-1.081-1.068-2.846-3.091-2.334-5.115a55.471,55.471,0,0,1,4.384-9.779,51.859,51.859,0,0,1,3.7-6.689,17.831,17.831,0,0,1,11.046-2.7l.114.113.8.169.285.168a13.44,13.44,0,0,1,2.448,2.923c.456.955.8,1.911,1.31,2.753-1.994-.619-4.9-4.047-7-3.2-.114,0-.171,0-.228.056-1.082.506-1.48,1.8-1.936,2.923l-.341.563a89.519,89.519,0,0,0-6.548,12.7l-.57,1.518c1.2-1.012,2.676-2.417,3.3-2.922,1.2-.955,4.043-3.541,6.435-5.733a8.533,8.533,0,0,1,.911-1.405h.057l.626-1.236a4.077,4.077,0,0,1,1.139-1.462c.967-.674,1.992-.225,2.9.394l.569.449c.057.113.114.113.114.169a.7.7,0,0,1,.285.73,1.95,1.95,0,0,1-.171,1.124A73.166,73.166,0,0,0,610.7,221.13c-.17.732-.91,2.249-.455,3.035C610.76,225.065,626.646,208.148,625.451,210.227Z" transform="translate(-74.65 -7.339)" fill="#232d29"/>
    <path id="Path_148" data-name="Path 148" d="M654.7,225.65c0,.113-.114.225-.228.337a9.553,9.553,0,0,1-2.163,1.406,2.552,2.552,0,0,1-1.594.055,1.362,1.362,0,0,1-1.082-.393l-.114-.113a.676.676,0,0,1-.285-.281,29.63,29.63,0,0,0-2.79-2.529c-1.766-1.405-1.082-3.766-1.139-3.934l.968-5.508c-1.765,3.147-4.1,6.745-7,10.96a.405.405,0,0,1-.228.337,9.163,9.163,0,0,1-2.106,1.406,2.57,2.57,0,0,1-1.594.055,1.254,1.254,0,0,1-1.082-.393.122.122,0,0,1-.113-.113c-.171-.056-.227-.168-.342-.281a23.914,23.914,0,0,0-2.79-2.529c-1.766-1.405-1.082-3.766-1.139-3.934.114-1.237,3.416-17.592,3.3-17.536-.285.056.626-4.046,1.309-4.721a.7.7,0,0,1,.74-.169,1.062,1.062,0,0,1,1.025.338,34.644,34.644,0,0,1,2.448,2.529,2.758,2.758,0,0,1,1.025,1.405,3.843,3.843,0,0,1,.455,2.08c-.228,1.461-1.2,2.753-1.651,4.1a29.139,29.139,0,0,0-1.195,5.115,80.6,80.6,0,0,1-.741,9.162c0,.113.114.393.171.281,15.488-17.873,10.249-23.775,12.583-23.775a3.154,3.154,0,0,1,.512-1.068.826.826,0,0,1,.8-.169,1.14,1.14,0,0,1,1.024.338,34.455,34.455,0,0,1,2.448,2.529,3.111,3.111,0,0,1,1.025,1.405,3.347,3.347,0,0,1,.4,2.08c-.171,1.461-1.139,2.753-1.594,4.1a24.813,24.813,0,0,0-1.2,5.115,69.223,69.223,0,0,1-.8,9.162c.057.113.114.393.228.281,15.487-17.873,20.1-28.889,22.491-28.889C678.84,193.894,668.192,206.034,654.7,225.65Z" transform="translate(-84.594 -6.013)" fill="#232d29"/>
  </g>
</svg>
