<!-- Generator: Adobe Illustrator 21.0.0, SVG Export Plug-In  -->
<svg version="1.1"
	 xmlns="http://www.w3.org/2000/svg" xmlns:xlink="http://www.w3.org/1999/xlink" xmlns:a="http://ns.adobe.com/AdobeSVGViewerExtensions/3.0/"
	 x="0px" y="0px" width="24px" height="24px" viewBox="0 0 24 24" style="enable-background:new 0 0 24 24;" xml:space="preserve">
<style type="text/css">
	.st0{fill:#837272;}
	.st1{fill:none;}
</style>
<defs>
</defs>
<g transform="translate(-262 -709)">
	<path class="st0" d="M271.5,727c-0.5,0-1-0.1-1.5-0.3c-0.8-0.3-1.4-0.9-1.8-1.8c-0.2-0.5-0.3-1-0.3-1.5c0-0.6,0-0.8,0-2.5
		s0-1.8,0-2.5c0-0.5,0.1-1,0.3-1.5c0.2-0.4,0.4-0.8,0.7-1.1c0.3-0.3,0.7-0.5,1.1-0.7c0.5-0.2,1-0.3,1.5-0.3c0.6,0,0.8,0,2.5,0
		s1.8,0,2.5,0c0.5,0,1,0.1,1.5,0.3c0.4,0.2,0.8,0.4,1.1,0.7c0.3,0.3,0.5,0.7,0.7,1.1c0.2,0.5,0.3,1,0.3,1.5c0,0.6,0,0.8,0,2.5
		s0,1.8,0,2.5c0,0.5-0.1,1-0.3,1.5c-0.3,0.8-0.9,1.4-1.8,1.8c-0.5,0.2-1,0.3-1.5,0.3c-0.6,0-0.8,0-2.5,0S272.2,727,271.5,727z
		 M270.9,721c0,1.7,1.4,3.1,3.1,3.1s3.1-1.4,3.1-3.1c0-1.7-1.4-3.1-3.1-3.1c0,0,0,0,0,0C272.3,717.9,270.9,719.3,270.9,721z
		 M276.5,717.8c0,0.4,0.3,0.7,0.7,0.7s0.7-0.3,0.7-0.7s-0.3-0.7-0.7-0.7C276.8,717.1,276.5,717.4,276.5,717.8z M272,721
		c0-1.1,0.9-2,2-2s2,0.9,2,2s-0.9,2-2,2S272,722.1,272,721z"/>
	<g transform="translate(262 709)">
		
		<path class="st0" d="M12,24C5.4,24,0,18.6,0,12C0,5.4,5.4,0,12,0c6.6,0,12,5.4,12,12C24,18.6,18.6,24,12,24z M12,1
			C5.9,1,1,5.9,1,12s4.9,11,11,11s11-4.9,11-11S18.1,1,12,1z"/>
	</g>
</g>
</svg>
