<?xml version="1.0" encoding="iso-8859-1"?>
<!-- Generator: Adobe Illustrator 21.0.1, SVG Export Plug-In . SVG Version: 6.00 Build 0)  -->
<svg version="1.1" id="&#x421;&#x43B;&#x43E;&#x439;_1"
	 xmlns="http://www.w3.org/2000/svg" xmlns:xlink="http://www.w3.org/1999/xlink" x="0px" y="0px" viewBox="0 0 800 600"
	 style="enable-background:new 0 0 800 600;" xml:space="preserve">
<g>
	<polygon points="176.248,316.88 185.208,311.04 172.087,300.4 	"/>
	<polygon points="165.768,300.4 167.848,316.88 172.087,300.4 	"/>
	<polygon points="159.448,316.88 167.848,316.88 165.768,300.4 	"/>
	<polygon points="167.848,316.88 176.248,316.88 172.087,300.4 	"/>
	<polygon points="140.248,258.48 140.248,305.2 159.448,300.4 	"/>
	<polygon points="176.248,297.4 172.087,300.4 185.208,311.04 180.408,294.4 	"/>
	<polygon points="140.248,305.2 159.448,316.88 159.448,300.4 	"/>
	<polygon points="159.448,300.4 159.448,316.88 165.768,300.4 	"/>
	<polygon points="184.728,283.92 203.927,283.92 199.047,273.24 	"/>
	<polygon points="143.168,355.479 144.728,356.08 149.848,356.08 154.967,356.08 141.608,354.879 	"/>
	<polygon points="159.448,283.84 159.448,267.28 140.248,258.48 159.448,300.4 	"/>
	<polygon points="140.928,353.399 141.608,354.879 159.448,351.919 140.248,351.919 	"/>
	<polygon points="182.568,289.16 180.408,294.4 199.047,294.56 184.728,283.92 	"/>
	<polygon points="199.047,294.56 203.927,283.92 184.728,283.92 	"/>
	<polygon points="194.167,305.2 199.047,294.56 180.408,294.4 	"/>
	<polygon points="185.208,311.04 194.167,305.2 180.408,294.4 	"/>
	<polygon points="194.167,262.56 185.208,256.68 180.408,273.44 	"/>
	<polygon points="199.047,273.24 194.167,262.56 182.568,278.68 	"/>
	<polygon points="184.728,283.92 199.047,273.24 182.568,278.68 	"/>
	<polygon points="154.967,356.08 157.208,354 159.448,351.919 141.608,354.879 	"/>
	<polygon points="143.127,253.52 141.688,256 140.248,258.48 159.448,267.28 	"/>
	<polygon points="176.248,270.36 180.408,273.44 185.208,256.68 172.087,267.28 	"/>
	<polygon points="159.448,351.919 159.448,334.4 140.248,351.919 	"/>
	<polygon points="140.248,351.919 159.448,334.4 140.248,305.2 	"/>
	<polygon points="159.448,334.4 159.448,316.88 140.248,305.2 	"/>
	<polygon points="182.568,278.68 194.167,262.56 180.408,273.44 	"/>
	<polygon points="162.248,250.8 148.248,250.8 159.448,267.28 	"/>
	<polygon points="148.248,250.8 145.688,252.16 159.448,267.28 	"/>
	<polygon points="165.768,267.28 162.248,250.8 159.448,267.28 	"/>
	<polygon points="145.688,252.16 143.127,253.52 159.448,267.28 	"/>
	<polygon points="172.087,267.28 176.248,250.8 165.768,267.28 	"/>
	<polygon points="185.208,256.68 176.248,250.8 172.087,267.28 	"/>
	<polygon points="176.248,250.8 162.248,250.8 165.768,267.28 	"/>
	<polygon points="246.327,338.96 242.967,340.56 252.167,353.52 249.687,337.36 	"/>
	<polygon points="242.967,357.52 252.167,353.52 242.967,340.56 	"/>
	<polygon points="233.727,353.52 242.967,357.52 242.967,340.56 	"/>
	<polygon points="224.487,349.52 233.727,353.52 239.567,338.96 	"/>
	<polygon points="234.288,334.32 224.487,349.52 236.167,337.36 	"/>
	<polygon points="236.167,337.36 224.487,349.52 239.567,338.96 	"/>
	<polygon points="239.567,338.96 233.727,353.52 242.967,340.56 	"/>
	<polygon points="252.167,353.52 261.367,349.52 249.687,337.36 	"/>
	<polygon points="261.367,349.52 266.727,341.76 249.687,337.36 	"/>
	<polygon points="253.527,300.88 272.087,298.16 266.767,290.36 	"/>
	<polygon points="253.527,316.08 272.087,298.16 253.527,300.88 	"/>
	<polygon points="213.847,334 219.167,341.76 224.487,349.52 234.288,334.32 	"/>
	<polygon points="251.607,334.32 249.687,337.36 266.727,341.76 253.527,331.28 	"/>
	<polygon points="266.727,341.76 272.087,334 253.527,331.28 	"/>
	<polygon points="272.087,316.08 272.087,298.16 253.527,316.08 	"/>
	<polygon points="253.527,331.28 272.087,334 253.527,316.08 	"/>
	<polygon points="272.087,334 272.087,316.08 253.527,316.08 	"/>
	<polygon points="246.287,293.2 249.607,294.8 252.207,278.6 242.967,291.6 	"/>
	<polygon points="252.207,278.6 242.967,274.64 242.967,291.6 	"/>
	<polygon points="253.527,300.88 266.767,290.36 251.567,297.84 	"/>
	<polygon points="242.967,274.64 233.727,278.64 242.967,291.6 	"/>
	<polygon points="266.767,290.36 261.447,282.56 251.567,297.84 	"/>
	<polygon points="239.607,293.16 242.967,291.6 233.727,278.64 236.248,294.72 	"/>
	<polygon points="261.447,282.56 252.207,278.6 249.607,294.8 	"/>
	<polygon points="251.567,297.84 261.447,282.56 249.607,294.8 	"/>
	<polygon points="232.408,331.28 213.847,334 234.288,334.32 	"/>
	<polygon points="232.408,316.08 213.847,316.08 232.408,331.28 	"/>
	<polygon points="232.408,300.88 213.847,298.16 232.408,316.08 	"/>
	<polygon points="213.847,298.16 213.847,316.08 232.408,316.08 	"/>
	<polygon points="213.847,316.08 213.847,334 232.408,331.28 	"/>
	<polygon points="233.727,278.64 224.487,282.64 236.248,294.72 	"/>
	<polygon points="224.487,282.64 219.167,290.4 236.248,294.72 	"/>
	<polygon points="219.167,290.4 213.847,298.16 232.408,300.88 	"/>
	<polygon points="234.328,297.8 236.248,294.72 219.167,290.4 232.408,300.88 	"/>
	<polygon points="308.844,278.76 315.604,293.32 317.844,274.8 	"/>
	<polygon points="317.844,274.8 318.964,291.6 322.244,275.44 	"/>
	<polygon points="315.604,293.32 318.964,291.6 317.844,274.8 	"/>
	<polygon points="312.244,295.04 315.604,293.32 308.844,278.76 	"/>
	<polygon points="299.844,282.72 312.244,295.04 308.844,278.76 	"/>
	<polygon points="322.244,275.44 323.444,292.08 326.644,276.08 	"/>
	<polygon points="326.644,276.08 328.724,288.72 329.284,285.04 329.844,281.36 328.244,278.72 	"/>
	<polygon points="318.964,291.6 321.204,291.84 323.444,292.08 322.244,275.44 	"/>
	<polygon points="310.324,298.2 312.244,295.04 299.844,282.72 	"/>
	<polygon points="323.444,292.08 326.084,290.4 328.724,288.72 326.644,276.08 	"/>
	<polygon points="292.524,355.479 294.004,356.08 307.205,354.879 291.044,354.879 	"/>
	<polygon points="308.404,351.919 308.404,326.64 289.844,351.919 	"/>
	<polygon points="307.205,354.879 307.804,353.399 308.404,351.919 289.844,351.919 	"/>
	<polygon points="289.844,351.919 308.404,326.64 289.844,325.2 	"/>
	<polygon points="294.844,290.6 310.324,298.2 299.844,282.72 	"/>
	<polygon points="299.124,356.08 304.244,356.08 305.724,355.479 307.205,354.879 294.004,356.08 	"/>
	<polygon points="290.444,353.399 291.044,354.879 307.205,354.879 289.844,351.919 	"/>
	<polygon points="308.404,301.36 310.324,298.2 294.844,290.6 	"/>
	<polygon points="289.844,298.48 308.404,301.36 294.844,290.6 	"/>
	<polygon points="308.404,326.64 308.404,301.36 289.844,325.2 	"/>
	<polygon points="289.844,325.2 308.404,301.36 289.844,298.48 	"/>
	<polygon points="345.684,314.88 345.684,337.68 364.245,313.44 	"/>
	<polygon points="364.245,334.8 349.604,344.4 365.484,336.68 	"/>
	<polygon points="364.245,313.44 345.684,337.68 364.245,334.8 	"/>
	<polygon points="364.245,292.08 345.684,314.88 364.245,313.44 	"/>
	<polygon points="371.125,292.08 371.125,276.08 364.245,292.08 	"/>
	<polygon points="371.125,276.08 364.245,276.08 364.245,292.08 	"/>
	<polygon points="345.684,292.08 345.684,314.88 364.245,292.08 	"/>
	<polygon points="378.604,340.04 376.884,339.76 382.804,350.48 380.325,340.32 	"/>
	<polygon points="364.245,276.08 345.684,292.08 364.245,292.08 	"/>
	<polygon points="345.684,337.68 349.604,344.4 364.245,334.8 	"/>
	<polygon points="370.804,340.56 373.924,356.48 373.844,340.16 	"/>
	<polygon points="373.844,340.16 373.924,356.48 376.884,339.76 	"/>
	<polygon points="373.924,356.48 379.125,355.44 376.884,339.76 	"/>
	<polygon points="368.724,357.52 373.924,356.48 370.804,340.56 	"/>
	<polygon points="379.125,355.44 380.964,352.96 382.804,350.48 376.884,339.76 	"/>
	<polygon points="349.604,344.4 353.524,351.12 366.724,338.56 	"/>
	<polygon points="361.124,354.32 368.724,357.52 370.804,340.56 	"/>
	<polygon points="365.484,336.68 349.604,344.4 366.724,338.56 	"/>
	<polygon points="378.004,276.08 371.125,276.08 371.125,292.08 	"/>
	<polygon points="353.524,351.12 361.124,354.32 366.724,338.56 	"/>
	<polygon points="368.764,339.56 366.724,338.56 361.124,354.32 370.804,340.56 	"/>
	<polygon points="346.884,257.36 346.284,258.88 345.684,260.4 363.044,257.44 	"/>
	<polygon points="337.524,292.08 341.604,292.08 341.604,276.08 	"/>
	<polygon points="337.524,276.08 337.524,292.08 341.604,276.08 	"/>
	<polygon points="354.964,256.24 349.844,256.24 348.364,256.8 346.884,257.36 360.084,256.24 	"/>
	<polygon points="336.044,276.68 334.564,277.28 337.524,292.08 337.524,276.08 	"/>
	<polygon points="341.604,276.08 341.604,292.08 345.684,276.08 	"/>
	<polygon points="341.604,292.08 345.684,292.08 345.684,276.08 	"/>
	<polygon points="333.365,284.08 333.365,287.92 333.964,289.4 334.564,290.88 333.365,280.24 	"/>
	<polygon points="382.004,343.12 381.165,341.72 380.325,340.32 382.804,350.48 382.404,346.8 	"/>
	<polygon points="333.964,278.76 333.365,280.24 334.564,290.88 334.564,277.28 	"/>
	<polygon points="334.564,290.88 336.044,291.48 337.524,292.08 334.564,277.28 	"/>
	<polygon points="345.684,268.24 345.684,276.08 364.245,268.24 	"/>
	<polygon points="364.245,268.24 345.684,276.08 364.245,276.08 	"/>
	<polygon points="345.684,276.08 345.684,292.08 364.245,276.08 	"/>
	<polygon points="379.444,291.44 380.884,290.8 380.964,277.28 378.004,292.08 	"/>
	<polygon points="380.964,277.28 379.484,276.68 378.004,276.08 378.004,292.08 	"/>
	<polygon points="361.564,256.84 360.084,256.24 346.884,257.36 363.044,257.44 	"/>
	<polygon points="363.645,258.92 363.044,257.44 345.684,260.4 364.245,260.4 	"/>
	<polygon points="378.004,292.08 378.004,276.08 371.125,292.08 	"/>
	<polygon points="345.684,260.4 345.684,268.24 364.245,260.4 	"/>
	<polygon points="364.245,260.4 345.684,268.24 364.245,268.24 	"/>
	<polygon points="381.524,289.36 382.165,287.92 382.165,284.08 382.165,280.24 381.564,278.76 380.964,277.28 380.884,290.8 	"/>
	<polygon points="401.841,271.2 401.841,276.08 420.402,272.56 401.841,266.32 	"/>
	<polygon points="420.402,272.56 420.402,269.04 401.841,266.32 	"/>
	<polygon points="401.841,266.32 420.402,269.04 406.481,258.36 	"/>
	<polygon points="420.402,269.04 421.882,265.8 406.481,258.36 	"/>
	<polygon points="406.481,258.36 421.882,265.8 411.122,250.4 	"/>
	<polygon points="392.881,292.08 397.361,292.08 397.361,276.08 	"/>
	<polygon points="397.361,276.08 397.361,292.08 401.841,276.08 	"/>
	<polygon points="421.882,265.8 423.362,262.56 411.122,250.4 	"/>
	<polygon points="420.402,276.08 420.402,272.56 401.841,276.08 	"/>
	<polygon points="401.841,292.08 420.402,276.08 401.841,276.08 	"/>
	<polygon points="397.361,292.08 401.841,292.08 401.841,276.08 	"/>
	<polygon points="435.762,244 434.482,243.28 433.202,259.28 437.042,244.72 	"/>
	<polygon points="392.881,276.08 392.881,292.08 397.361,276.08 	"/>
	<polygon points="431.042,259.28 433.202,259.28 434.482,243.28 	"/>
	<polygon points="391.281,291.48 392.881,292.08 392.881,276.08 	"/>
	<polygon points="433.122,243.08 431.761,242.88 431.042,259.28 434.482,243.28 	"/>
	<polygon points="433.202,259.28 435.202,257.36 437.202,255.44 437.042,244.72 	"/>
	<polygon points="419.682,246.44 426.122,260.92 428.242,242.48 	"/>
	<polygon points="411.122,250.4 423.362,262.56 419.682,246.44 	"/>
	<polygon points="423.362,262.56 426.122,260.92 419.682,246.44 	"/>
	<polygon points="426.122,260.92 428.881,259.28 428.242,242.48 	"/>
	<polygon points="430.001,242.68 428.242,242.48 428.881,259.28 431.761,242.88 	"/>
	<polygon points="428.881,259.28 431.042,259.28 431.761,242.88 	"/>
	<polygon points="437.042,244.72 437.202,255.44 437.521,251.52 437.841,247.6 437.441,246.16 	"/>
	<polygon points="401.841,351.919 420.402,322 401.841,322 	"/>
	<polygon points="401.841,322 420.402,292.08 401.841,292.08 	"/>
	<polygon points="420.402,322 420.402,292.08 401.841,322 	"/>
	<polygon points="420.402,351.919 420.402,322 401.841,351.919 	"/>
	<polygon points="402.441,353.399 420.402,351.919 401.841,351.919 	"/>
	<polygon points="391.281,276.68 389.681,277.28 391.281,291.48 392.881,276.08 	"/>
	<polygon points="389.681,290.88 391.281,291.48 389.681,277.28 	"/>
	<polygon points="403.042,354.879 420.402,351.919 402.441,353.399 	"/>
	<polygon points="389.042,278.76 388.402,280.24 388.402,284.08 388.402,287.92 389.681,277.28 	"/>
	<polygon points="388.402,287.92 389.042,289.4 389.681,290.88 389.681,277.28 	"/>
	<polygon points="420.402,292.08 420.402,276.08 401.841,292.08 	"/>
	<polygon points="435.962,278.76 435.362,277.28 433.882,276.68 432.402,276.08 436.562,280.24 	"/>
	<polygon points="432.402,276.08 426.402,276.08 432.402,292.08 	"/>
	<polygon points="435.962,289.4 432.402,276.08 435.362,290.88 	"/>
	<polygon points="433.882,291.48 435.362,290.88 432.402,276.08 432.402,292.08 	"/>
	<polygon points="436.562,287.92 432.402,276.08 435.962,289.4 	"/>
	<polygon points="436.562,284.08 436.562,280.24 432.402,276.08 436.562,287.92 	"/>
	<polygon points="404.521,355.479 406.001,356.08 420.402,351.919 403.042,354.879 	"/>
	<polygon points="426.402,276.08 420.402,276.08 426.402,292.08 	"/>
	<polygon points="417.722,355.479 419.202,354.879 419.802,353.399 420.402,351.919 416.242,356.08 	"/>
	<polygon points="411.122,356.08 416.242,356.08 420.402,351.919 406.001,356.08 	"/>
	<polygon points="426.402,292.08 420.402,276.08 420.402,292.08 	"/>
	<polygon points="432.402,292.08 426.402,276.08 426.402,292.08 	"/>
	<polygon points="533.837,243.76 524.558,247.92 538.958,243.76 	"/>
	<polygon points="525.757,244.96 525.158,246.44 524.558,247.92 533.837,243.76 	"/>
	<polygon points="524.558,299.92 543.118,247.92 524.558,247.92 	"/>
	<polygon points="528.717,243.76 527.237,244.36 525.757,244.96 533.837,243.76 	"/>
	<polygon points="543.118,299.92 543.118,247.92 524.558,299.92 	"/>
	<polygon points="541.917,244.96 524.558,247.92 543.118,247.92 542.518,246.44 	"/>
	<polygon points="540.438,244.36 538.958,243.76 524.558,247.92 541.917,244.96 	"/>
	<polygon points="540.438,355.479 541.917,354.879 542.518,353.399 543.118,351.919 538.958,356.08 	"/>
	<polygon points="543.118,351.919 543.118,299.92 524.558,351.919 	"/>
	<polygon points="525.158,353.399 543.118,351.919 524.558,351.919 	"/>
	<polygon points="525.757,354.879 543.118,351.919 525.158,353.399 	"/>
	<polygon points="524.558,351.919 543.118,299.92 524.558,299.92 	"/>
	<polygon points="533.837,356.08 543.118,351.919 528.717,356.08 	"/>
	<polygon points="538.958,356.08 543.118,351.919 533.837,356.08 	"/>
	<polygon points="527.237,355.479 528.717,356.08 543.118,351.919 525.757,354.879 	"/>
	<polygon points="582.475,351.919 582.475,316.08 563.916,351.919 	"/>
	<polygon points="564.515,353.399 565.115,354.879 582.475,351.919 563.916,351.919 	"/>
	<polygon points="573.195,356.08 582.475,351.919 568.075,356.08 	"/>
	<polygon points="581.275,354.879 581.875,353.399 582.475,351.919 573.195,356.08 	"/>
	<polygon points="578.315,356.08 579.795,355.479 581.275,354.879 573.195,356.08 	"/>
	<polygon points="573.195,276.08 582.475,280.24 578.315,276.08 	"/>
	<polygon points="569.555,262.12 573.035,264.08 576.635,244.56 	"/>
	<polygon points="573.035,242.64 569.555,262.12 576.635,244.56 	"/>
	<polygon points="569.555,244.6 566.075,260.16 573.035,242.64 	"/>
	<polygon points="563.916,351.919 582.475,316.08 563.916,316.08 	"/>
	<polygon points="576.635,244.56 573.035,264.08 580.235,246.48 	"/>
	<polygon points="580.235,246.48 582.315,256.76 584.395,253.36 582.315,249.92 	"/>
	<polygon points="580.235,260.16 582.315,256.76 580.235,246.48 	"/>
	<polygon points="564.035,256.76 566.075,260.16 569.555,244.6 	"/>
	<polygon points="573.035,264.08 576.635,262.12 580.235,246.48 	"/>
	<polygon points="576.635,262.12 580.235,260.16 580.235,246.48 	"/>
	<polygon points="566.075,260.16 569.555,262.12 573.035,242.64 	"/>
	<polygon points="563.916,316.08 582.475,280.24 563.916,280.24 	"/>
	<polygon points="564.515,278.76 563.916,280.24 582.475,280.24 565.115,277.28 	"/>
	<polygon points="566.595,276.68 565.115,277.28 582.475,280.24 568.075,276.08 	"/>
	<polygon points="582.475,316.08 582.475,280.24 563.916,316.08 	"/>
	<polygon points="566.075,246.56 564.035,256.76 569.555,244.6 	"/>
	<polygon points="564.035,249.96 564.035,256.76 566.075,246.56 	"/>
	<polygon points="568.075,276.08 582.475,280.24 573.195,276.08 	"/>
	<polygon points="561.996,253.36 564.035,256.76 564.035,249.96 	"/>
	<polygon points="581.275,277.28 579.795,276.68 578.315,276.08 582.475,280.24 581.875,278.76 	"/>
	<polygon points="566.595,355.479 568.075,356.08 582.475,351.919 565.115,354.879 	"/>
	<polygon points="467.493,278.64 458.253,282.64 470.013,294.72 	"/>
	<polygon points="468.094,297.8 470.013,294.72 452.933,290.4 466.174,300.88 	"/>
	<polygon points="458.253,282.64 452.933,290.4 470.013,294.72 	"/>
	<polygon points="466.174,300.88 447.613,298.16 466.174,316.08 	"/>
	<polygon points="452.933,290.4 447.613,298.16 466.174,300.88 	"/>
	<polygon points="447.613,316.08 447.613,334 466.174,331.28 	"/>
	<polygon points="447.613,298.16 447.613,316.08 466.174,316.08 	"/>
	<polygon points="466.174,316.08 447.613,316.08 466.174,331.28 	"/>
	<polygon points="487.293,300.88 505.853,298.16 500.533,290.36 	"/>
	<polygon points="485.333,297.84 495.213,282.56 483.373,294.8 	"/>
	<polygon points="466.174,331.28 447.613,334 468.054,334.32 	"/>
	<polygon points="487.293,300.88 500.533,290.36 485.333,297.84 	"/>
	<polygon points="495.213,282.56 485.973,278.6 483.373,294.8 	"/>
	<polygon points="485.973,278.6 476.733,274.64 476.733,291.6 	"/>
	<polygon points="480.053,293.2 483.373,294.8 485.973,278.6 476.733,291.6 	"/>
	<polygon points="476.733,274.64 467.493,278.64 476.733,291.6 	"/>
	<polygon points="473.373,293.16 476.733,291.6 467.493,278.64 470.013,294.72 	"/>
	<polygon points="500.533,290.36 495.213,282.56 485.333,297.84 	"/>
	<polygon points="500.493,341.76 505.853,334 487.293,331.28 	"/>
	<polygon points="487.293,331.28 505.853,334 487.293,316.08 	"/>
	<polygon points="485.373,334.32 483.453,337.36 500.493,341.76 487.293,331.28 	"/>
	<polygon points="495.133,349.52 500.493,341.76 483.453,337.36 	"/>
	<polygon points="505.853,316.08 505.853,298.16 487.293,316.08 	"/>
	<polygon points="505.853,334 505.853,316.08 487.293,316.08 	"/>
	<polygon points="487.293,316.08 505.853,298.16 487.293,300.88 	"/>
	<polygon points="485.933,353.52 495.133,349.52 483.453,337.36 	"/>
	<polygon points="476.733,357.52 485.933,353.52 476.733,340.56 	"/>
	<polygon points="458.253,349.52 467.493,353.52 473.333,338.96 	"/>
	<polygon points="469.933,337.36 458.253,349.52 473.333,338.96 	"/>
	<polygon points="468.054,334.32 458.253,349.52 469.933,337.36 	"/>
	<polygon points="447.613,334 452.933,341.76 458.253,349.52 468.054,334.32 	"/>
	<polygon points="480.093,338.96 476.733,340.56 485.933,353.52 483.453,337.36 	"/>
	<polygon points="473.333,338.96 467.493,353.52 476.733,340.56 	"/>
	<polygon points="467.493,353.52 476.733,357.52 476.733,340.56 	"/>
	<polygon points="640.793,316.12 659.353,316.12 659.353,298.2 	"/>
	<polygon points="611.753,349.56 620.993,353.56 626.833,339 	"/>
	<polygon points="601.113,316.12 601.113,334.04 619.674,331.32 	"/>
	<polygon points="623.433,337.4 611.753,349.56 626.833,339 	"/>
	<polygon points="620.993,353.56 630.233,357.56 630.233,340.6 	"/>
	<polygon points="621.554,334.36 611.753,349.56 623.433,337.4 	"/>
	<polygon points="619.674,331.32 601.113,334.04 621.554,334.36 	"/>
	<polygon points="601.113,334.04 606.433,341.8 611.753,349.56 621.554,334.36 	"/>
	<polygon points="630.233,357.56 639.433,353.56 630.233,340.6 	"/>
	<polygon points="626.833,339 620.993,353.56 630.233,340.6 	"/>
	<polygon points="653.993,341.8 659.353,334.04 640.793,331.32 	"/>
	<polygon points="640.793,331.32 659.353,334.04 640.793,316.12 	"/>
	<polygon points="659.353,334.04 659.353,316.12 640.793,316.12 	"/>
	<polygon points="639.433,353.56 648.633,349.56 636.953,337.4 	"/>
	<polygon points="633.593,339 630.233,340.6 639.433,353.56 636.953,337.4 	"/>
	<polygon points="640.793,316.12 659.353,298.2 640.793,300.92 	"/>
	<polygon points="648.633,349.56 653.993,341.8 636.953,337.4 	"/>
	<polygon points="638.873,334.36 636.953,337.4 653.993,341.8 640.793,331.32 	"/>
	<polygon points="648.713,282.6 639.473,278.64 636.873,294.84 	"/>
	<polygon points="638.833,297.88 648.713,282.6 636.873,294.84 	"/>
	<polygon points="630.233,274.68 620.993,278.68 630.233,291.64 	"/>
	<polygon points="639.473,278.64 630.233,274.68 630.233,291.64 	"/>
	<polygon points="633.553,293.24 636.873,294.84 639.473,278.64 630.233,291.64 	"/>
	<polygon points="654.033,290.4 648.713,282.6 638.833,297.88 	"/>
	<polygon points="659.353,298.2 654.033,290.4 640.793,300.92 	"/>
	<polygon points="640.793,300.92 654.033,290.4 638.833,297.88 	"/>
	<polygon points="611.753,282.68 606.433,290.44 623.513,294.76 	"/>
	<polygon points="619.674,300.92 601.113,298.2 619.674,316.12 	"/>
	<polygon points="601.113,298.2 601.113,316.12 619.674,316.12 	"/>
	<polygon points="606.433,290.44 601.113,298.2 619.674,300.92 	"/>
	<polygon points="626.873,293.2 630.233,291.64 620.993,278.68 623.513,294.76 	"/>
	<polygon points="621.594,297.84 623.513,294.76 606.433,290.44 619.674,300.92 	"/>
	<polygon points="620.993,278.68 611.753,282.68 623.513,294.76 	"/>
	<polygon points="619.674,316.12 601.113,316.12 619.674,331.32 	"/>
</g>
</svg>
