<?xml version="1.0" encoding="utf-8"?><svg xmlns="http://www.w3.org/2000/svg" xmlns:xlink="http://www.w3.org/1999/xlink"><symbol viewBox="0 0 16 30" id="arrow-down" xmlns="http://www.w3.org/2000/svg"><path d="M0 0l8 2.612L16 0 8 8zm0 11l8 2.612L16 11l-8 8zm0 11l8 2.612L16 22l-8 8z"/></symbol><symbol viewBox="0 0 30 16" id="arrow-left" xmlns="http://www.w3.org/2000/svg"><path d="M0 16l2.612-8L0 0l8 8zm11 0l2.612-8L11 0l8 8zm11 0l2.612-8L22 0l8 8z"/></symbol><symbol viewBox="0 0 30 16" id="arrow-right" xmlns="http://www.w3.org/2000/svg"><path d="M30 0l-2.612 8L30 16l-8-8zM19 0l-2.612 8L19 16l-8-8zM8 0L5.388 8 8 16 0 8z"/></symbol><symbol viewBox="0 0 8 16" id="button-arrow" xmlns="http://www.w3.org/2000/svg"><path d="M0 16l2.612-8L0 0l8 8z"/></symbol><symbol viewBox="0 0 13.1 13.1" id="dots" xmlns="http://www.w3.org/2000/svg"><circle cx="6.6" cy="12.1" r="1"/></symbol><symbol id="email" viewBox="0 0 26 26" xml:space="preserve" xmlns="http://www.w3.org/2000/svg"><style>.fst0{fill:none}</style><path class="fst0" d="M0 13zm26 0zM13 0zm0 26z"/><path d="M26 13c0-7.2-5.8-13-13-13S0 5.8 0 13s5.8 13 13 13 13-5.8 13-13zM13 25C6.4 25 1 19.6 1 13S6.4 1 13 1s12 5.4 12 12-5.4 12-12 12z"/><path d="M16.9 9.1H9.1c-.5 0-1 .4-1 1v5.8c0 .5.4 1 1 1h7.8c.5 0 1-.4 1-1v-5.8c0-.6-.5-1-1-1zm0 2L13 13.5l-3.9-2.4v-1l3.9 2.4 3.9-2.4v1z"/></symbol><symbol viewBox="0 0 10.14 16.879" id="facebook" xmlns="http://www.w3.org/2000/svg"><path data-name="Icon zocial-facebook" d="M0 9.064V5.841h2.9V4.22a4 4 0 011.272-2.988A4.268 4.268 0 017.256 0h2.887v3.224H7.256a.651.651 0 00-.513.276 1.049 1.049 0 00-.226.684V5.84h3.626v3.224H6.521v7.816H2.902V9.064z"/></symbol><symbol viewBox="0 0 14.745 14.745" id="info" xmlns="http://www.w3.org/2000/svg"><path data-name="Icon awesome-info-circle" d="M7.372 0a7.373 7.373 0 107.373 7.373A7.374 7.374 0 007.372 0zm0 3.27a1.249 1.249 0 11-1.249 1.248A1.249 1.249 0 017.372 3.27zm1.665 7.551a.357.357 0 01-.357.357H6.064a.357.357 0 01-.357-.357v-.714a.357.357 0 01.357-.357h.357v-1.9h-.357a.357.357 0 01-.357-.357v-.716a.357.357 0 01.357-.357h1.9a.357.357 0 01.357.357V9.75h.357a.357.357 0 01.357.357z"/></symbol><symbol viewBox="0 0 16 16" id="instagram" xmlns="http://www.w3.org/2000/svg"><path d="M16 4.7C15.9 1.8 14.3.2 11.3.1 10.4 0 10.2 0 8 0H4.7C1.8.2.2 1.8 0 4.7v6.6c.1 2.9 1.7 4.5 4.7 4.7h6.6c2.9-.1 4.5-1.7 4.7-4.7V4.7zm-8 6c-1.5 0-2.7-1.2-2.7-2.7 0-1.5 1.2-2.7 2.7-2.7s2.7 1.2 2.7 2.7c0 1.5-1.2 2.7-2.7 2.7zm4.3-6c-.5 0-1-.4-1-1s.4-1 1-1c.5 0 1 .4 1 1-.1.6-.5 1-1 1z"/></symbol><symbol id="phone" viewBox="0 0 26 26" xml:space="preserve" xmlns="http://www.w3.org/2000/svg"><style>.jst1{fill:#8bc53f}</style><g id="jLight_Button_Secondary_Icon"><path class="jst1" d="M13 26C5.8 26 0 20.2 0 13S5.8 0 13 0s13 5.8 13 13-5.8 13-13 13zm0-25C6.4 1 1 6.4 1 13s5.4 12 12 12 12-5.4 12-12S19.6 1 13 1z" id="jRectangle"/></g><path id="jPath" class="jst1" d="M16.6 14.5c-.5 0-1-.1-1.5-.2-.2-.1-.5 0-.7.1l-1 .7c-1-.5-1.9-1.4-2.4-2.4l.7-.9c.2-.2.3-.5.2-.7-.2-.5-.2-1-.2-1.5 0-.4-.3-.7-.7-.7H9.4c-.4-.1-.7.2-.7.6 0 4.4 3.6 8 8 8 .4 0 .7-.3.7-.7v-1.6c-.1-.4-.4-.7-.8-.7z"/></symbol><symbol viewBox="0 0 73 73" id="play-button" xmlns="http://www.w3.org/2000/svg"><style/><path d="M30.7 27.7v17.5l13.7-8.7-13.7-8.8z"/><path d="M36.5 73C16.4 73 0 56.6 0 36.5S16.4 0 36.5 0 73 16.4 73 36.5 56.6 73 36.5 73zm0-72C16.9 1 1 16.9 1 36.5S16.9 72 36.5 72 72 56.1 72 36.5 56.1 1 36.5 1z"/></symbol><symbol viewBox="0 0 512 512" id="search" xmlns="http://www.w3.org/2000/svg"><path d="M508.9 478.7L360.1 330c28.2-34.8 45.2-79.1 45.2-127.3C405.3 90.9 314.4 0 202.7 0S0 90.9 0 202.7s90.9 202.7 202.7 202.7c48.2 0 92.5-17 127.3-45.2l148.7 148.7c4.2 4.2 10.9 4.2 15.1 0l15.1-15.1c4.1-4.2 4.1-10.9 0-15.1zm-306.2-116c-88.2 0-160-71.8-160-160s71.8-160 160-160 160 71.8 160 160-71.8 160-160 160z"/></symbol><symbol viewBox="0 0 123.594 10.823" id="severinova" xmlns="http://www.w3.org/2000/svg"><g data-name="Group 54"><path data-name="Path 34" d="M3.37 10.809A6.717 6.717 0 010 9.423l.948-1.284a5.2 5.2 0 002.553 1.065 2.618 2.618 0 001.692-.394 1.645 1.645 0 00.817-1.663c-.16-.685-.934-1.152-2.1-1.3a4.415 4.415 0 01-2.115-.773A2.92 2.92 0 01.73 3.542a2.63 2.63 0 01.073-1.6A2.76 2.76 0 011.751.629 3.141 3.141 0 013.677.002a4.727 4.727 0 012.392.729l-.8 1.371a3.329 3.329 0 00-1.59-.5 1.559 1.559 0 00-.948.292 1.357 1.357 0 00-.423.569 1.125 1.125 0 00-.029.656c.175.6.831 1.021 1.823 1.138a4.788 4.788 0 012.334.846 2.832 2.832 0 01.934 3.559 3.607 3.607 0 01-1.283 1.49 4.181 4.181 0 01-2.3.671c-.14 0-.286-.014-.417-.014z"/></g><g data-name="Group 55"><path data-name="Path 35" d="M25.039.419h2.035l3 6.318L33.059.419h2.034l-5.021 10.052z"/><path data-name="Path 36" d="M40.164.432h6.706v1.673h-6.706zm6.675 4.176v1.674h-6.675V4.609zm-6.675 5.863V8.799h6.706v1.673z"/><path data-name="Path 37" d="M12.868.432h6.706v1.673h-6.706zm6.675 4.176v1.674h-6.675V4.609zm-6.675 5.863V8.799h6.706v1.673z"/><path data-name="Path 38" d="M67.309 10.472h-1.671v-8.74l1.673-1.3z"/><path data-name="Path 39" d="M82.49.406v10.065l-6.893-6.144v4.832l-1.673 1.312V.406l6.893 6.331V1.718z"/><path data-name="Path 40" d="M92.633.432A4.78 4.78 0 0194.54.82a5.252 5.252 0 011.6 1.064 5.077 5.077 0 011.1 1.593 4.93 4.93 0 01.02 3.882 5.25 5.25 0 01-1.064 1.6 5.067 5.067 0 01-1.593 1.1 4.947 4.947 0 01-3.888.02 5.082 5.082 0 01-1.6-1.071 5.2 5.2 0 01-1.1-1.6 4.762 4.762 0 01-.408-1.961 4.814 4.814 0 01.399-1.915 5.05 5.05 0 012.657-2.67 5.2 5.2 0 011.97-.43zm.007 8.366a3.174 3.174 0 001.262-.26 3.431 3.431 0 001.069-.715 3.488 3.488 0 00.734-1.062 3.136 3.136 0 00.274-1.3 3.205 3.205 0 00-.26-1.276 3.432 3.432 0 00-.715-1.069 3.485 3.485 0 00-1.062-.735 3.132 3.132 0 00-1.3-.274 3.206 3.206 0 00-1.276.261 3.426 3.426 0 00-1.8 1.783 3.18 3.18 0 00-.274 1.309 3.143 3.143 0 00.26 1.276 3.391 3.391 0 00.715 1.048 3.44 3.44 0 001.062.721 3.569 3.569 0 001.311.294z"/><path data-name="Path 41" d="M101.124.419h2.035l3 6.318 2.984-6.318h2.035l-5.019 10.052z"/><path data-name="Path 42" d="M123.594 10.471h-2.034l-3-6.318-2.985 6.318h-2.034L118.56.419z"/><path data-name="Path 43" d="M57.488 6.35l.115-.01a2.171 2.171 0 00.7-.2 2.211 2.211 0 00.566-.36 2.919 2.919 0 00.678-.883 3.3 3.3 0 00.294-1.492 3.6 3.6 0 00-.12-.984 2.824 2.824 0 00-.315-.729 2.239 2.239 0 00-.448-.522 3.594 3.594 0 00-.508-.361 3.227 3.227 0 00-1.392-.375h-5.253l.9 1.673h4.357a1.132 1.132 0 01.937.546 1.359 1.359 0 01.174.746 1.388 1.388 0 01-.174.759 1.146 1.146 0 01-.388.386 1.131 1.131 0 01-.549.16h-2.967l.9 1.673h.006l2.222 4.1h1.86l-2.235-4.1c.013-.001.324-.005.64-.027z"/></g></symbol><symbol id="themoonagency" viewBox="0 0 112 34.4" xml:space="preserve" xmlns="http://www.w3.org/2000/svg"><style>.nst1{fill:#e1e1e1}</style><defs><path id="nSVGID_1_" d="M-9.5-6.7h132v50h-132z"/></defs><clipPath id="nSVGID_2_"><use xlink:href="#nSVGID_1_" overflow="visible"/></clipPath><g id="na" transform="translate(0 -.372)" clip-path="url(#nSVGID_2_)"><g id="nGroup_225" transform="translate(9.503 7.108)"><path id="nPath_1320" class="nst1" d="M6.5 20.8H4.2v-2.3H1.9v-2.3H-.4v11.4h-9.1V4.8h9.1v2.3h2.3v2.3h2.3v2.3h2.3V9.4h2.3V7.1h2.3V4.8h9.1v22.8h-9.1V16.2H8.8v2.3H6.5v2.3z"/><path id="nPath_1321" class="nst1" d="M45.3 27.7H24.8v-2.3h-2.3V7.1h2.3V4.8h20.6v2.3h2.3v18.3h-2.3v2.3zm-6.8-4.6V9.4h-6.9v13.7h6.9z"/><path id="nPath_1322" class="nst1" d="M72.8 27.7H52.2v-2.3h-2.3V7.1h2.3V4.8h20.6v2.3H75v18.3h-2.3l.1 2.3zm-6.9-4.6V9.4H59v13.7h6.9z"/><path id="nPath_1323" class="nst1" d="M93.3 4.8h9.1v22.8h-9.1v-6.9H91v-2.3h-2.3v-2.3h-2.3v11.4h-9.1V4.8h9.1v2.3h2.3v2.3H91v2.3h2.3V4.8z"/><g id="nGroup_224"><path id="nPath_1324" class="nst1" d="M-1.2-2.5c0-.1-.1-.1-.2-.1h-.2c-.1 0-.2 0-.2.1-.1-.1-.2 0-.2.1-.1.1-.1.1-.1.2s-.1.2-.1.3h1.1v-.3c-.1-.1-.1-.2-.1-.3z"/><path id="nPath_1325" class="nst1" d="M-2.2-1c0 .1.1.3.2.4l.2.2c.1.1.3.1.4.1h.2c.1 0 .2 0 .2-.1.1 0 .2-.1.2-.1.1-.1.2-.1.2-.2l.1.1v-.9h-1.9c.1.1.1.3.2.5z"/><path id="nPath_1326" class="nst1" d="M-.6-.2l-.3.3c-.1.1-.2.1-.4.1h-.3c-.2 0-.4 0-.6-.1-.3-.1-.4-.2-.6-.3-.1-.2-.2-.4-.3-.5 0-.3-.1-.5-.1-.7 0-.2 0-.4.1-.6l.3-.6c.1-.2.3-.3.5-.4.2 0 .4-.1.7-.1h.3c.1.1.2.1.3.2.1 0 .2.1.3.2.1.1.2.2.2.3 0 .1.1.1.1.2v-4.4h-9.1V-3c.1 0 .1 0 .1-.1.1-.1.2-.1.2-.2.2 0 .2-.1.3-.2 0-.1.1-.2.1-.3h.5v.8h.8v.5h-.8v1.7c0 .1 0 .1.1.2 0 .1.1.1.1.1 0 .1.1.1.1.1h.1s.1 0 .1-.1c.1 0 .1-.1.2-.1l.2-.2.3.3c-.1.1-.2.3-.3.4-.1.1-.3.2-.4.2-.1 0-.2.1-.3.1h-.4c-.1 0-.1 0-.2-.1-.1 0-.1-.1-.2-.1l-.2-.2c-.1-.1-.1-.2-.1-.3v-1.9h-.3v4.9h9.1V-.3s-.1.1-.2.1zm-2.9.3h-1.6v-.4h.2l.1-.1v-1.3c0-.2 0-.4-.1-.6-.1-.1-.2-.2-.4-.2-.1 0-.2 0-.3.1-.1 0-.2.1-.3.2v1.8h.4v.5H-7v-.4h.2l.1-.1v-3.5h-.4v-.5h.7c.1 0 .1 0 .2-.1 0 0 .1 0 .1-.1h.4v1.8c.1-.1.1-.1.2-.1s.2-.1.2-.1h.4c.2 0 .3 0 .5.1.1.1.2.1.3.2.1.1.1.2.2.4 0 .2.1.4.1.6v1.3h.4l-.1.5z"/></g></g></g></symbol><symbol viewBox="0 0 24 24" id="youtube" xmlns="http://www.w3.org/2000/svg"><style>.ost1{fill:#837272}</style><path class="ost1" d="M12 24C5.4 24 0 18.6 0 12S5.4 0 12 0s12 5.4 12 12-5.4 12-12 12zm0-23C5.9 1 1 5.9 1 12s4.9 11 11 11 11-4.9 11-11S18.1 1 12 1z"/><path class="ost1" d="M17.9 8.4c-.1-.6-.5-1-1.1-1.3-1.6-.2-3.2-.3-4.7-.3-1.6 0-3.2.1-4.7.3-.5.2-.9.7-1.1 1.3-.2 1.2-.3 2.3-.3 3.5 0 1.2.1 2.3.3 3.5.1.6.5 1 1.1 1.3 1.6.2 3.2.3 4.7.3 1.6 0 3.2-.1 4.7-.3.5-.2.9-.7 1.1-1.3.2-1.2.3-2.3.3-3.5-.1-1.2-.1-2.4-.3-3.5zm-7 5.6V9.7l3.2 2.2-3.2 2.1z"/></symbol></svg>