<!-- Generator: Adobe Illustrator 21.0.0, SVG Export Plug-In  -->
<svg version="1.1"
	 xmlns="http://www.w3.org/2000/svg" xmlns:xlink="http://www.w3.org/1999/xlink" xmlns:a="http://ns.adobe.com/AdobeSVGViewerExtensions/3.0/"
	 x="0px" y="0px" width="24px" height="24px" viewBox="0 0 24 24" style="enable-background:new 0 0 24 24;" xml:space="preserve">
<style type="text/css">
	.st0{fill:#837272;}
	.st1{fill:none;}
</style>
<defs>
</defs>
<g transform="translate(-725 -944)">
	<g transform="translate(606 950)">
		<g transform="translate(128)">
			<path class="st0" d="M3.8,4.1V2.6c0-0.4,0.3-0.8,0.8-0.8h0.8V0H3.8C2.5,0,1.5,1,1.5,2.3v1.9H0V6h1.5v6h2.3V6h1.5L6,4.1H3.8z"/>
		</g>
	</g>
	<g transform="translate(725 944)">
		<path class="st1" d="M12,0L12,0c6.6,0,12,5.4,12,12l0,0c0,6.6-5.4,12-12,12l0,0C5.4,24,0,18.6,0,12l0,0C0,5.4,5.4,0,12,0z"/>
		<path class="st0" d="M12,24C5.4,24,0,18.6,0,12C0,5.4,5.4,0,12,0c6.6,0,12,5.4,12,12C24,18.6,18.6,24,12,24z M12,1
			C5.9,1,1,5.9,1,12s4.9,11,11,11s11-4.9,11-11S18.1,1,12,1z"/>
	</g>
</g>
</svg>
