<!-- Generator: Adobe Illustrator 21.0.0, SVG Export Plug-In  -->
<svg version="1.1"
	 xmlns="http://www.w3.org/2000/svg" xmlns:xlink="http://www.w3.org/1999/xlink" xmlns:a="http://ns.adobe.com/AdobeSVGViewerExtensions/3.0/"
	 x="0px" y="0px" width="73px" height="73px" viewBox="0 0 73 73" style="enable-background:new 0 0 73 73;" xml:space="preserve">
<style type="text/css">
	.st0{fill:#F9F7F5;}
	.st1{fill:none;}
	.st2{fill:#FFFFFF;}
</style>
<defs>
</defs>
<g transform="translate(-854.5 -503.5)">
	<path class="st0" d="M885.2,531.2v17.5l13.7-8.7L885.2,531.2z"/>
	<g transform="translate(854.5 503.5)">
		<g>
			<path class="st2" d="M36.5,73C16.4,73,0,56.6,0,36.5S16.4,0,36.5,0S73,16.4,73,36.5S56.6,73,36.5,73z M36.5,1
				C16.9,1,1,16.9,1,36.5C1,56.1,16.9,72,36.5,72C56.1,72,72,56.1,72,36.5C72,16.9,56.1,1,36.5,1z"/>
		</g>
	</g>
</g>
</svg>
