<!-- Generator: Adobe Illustrator 21.0.0, SVG Export Plug-In  -->
<svg version="1.1"
	 xmlns="http://www.w3.org/2000/svg" xmlns:xlink="http://www.w3.org/1999/xlink" xmlns:a="http://ns.adobe.com/AdobeSVGViewerExtensions/3.0/"
	 x="0px" y="0px" width="24px" height="24px" viewBox="0 0 24 24" style="enable-background:new 0 0 24 24;" xml:space="preserve">
<style type="text/css">
	.st0{fill:none;}
	.st1{fill:#837272;}
</style>
<defs>
</defs>
<g transform="translate(-216 -709)">
	<g transform="translate(216 709)">
		
		<path class="st1" d="M12,24C5.4,24,0,18.6,0,12C0,5.4,5.4,0,12,0c6.6,0,12,5.4,12,12C24,18.6,18.6,24,12,24z M12,1
			C5.9,1,1,5.9,1,12s4.9,11,11,11s11-4.9,11-11S18.1,1,12,1z"/>
	</g>
	<path class="st1" d="M233.9,717.4c-0.1-0.6-0.5-1-1.1-1.3c-1.6-0.2-3.2-0.3-4.7-0.3c-1.6,0-3.2,0.1-4.7,0.3
		c-0.5,0.2-0.9,0.7-1.1,1.3c-0.2,1.2-0.3,2.3-0.3,3.5c0,1.2,0.1,2.3,0.3,3.5c0.1,0.6,0.5,1,1.1,1.3c1.6,0.2,3.2,0.3,4.7,0.3
		c1.6,0,3.2-0.1,4.7-0.3c0.5-0.2,0.9-0.7,1.1-1.3c0.2-1.2,0.3-2.3,0.3-3.5C234.1,719.7,234.1,718.5,233.9,717.4z M226.9,723v-4.3
		l3.2,2.2L226.9,723z"/>
</g>
</svg>
