<?xml version="1.0" encoding="utf-8"?><svg xmlns="http://www.w3.org/2000/svg" xmlns:xlink="http://www.w3.org/1999/xlink"><symbol viewBox="0 0 10.14 16.879" id="facebook" xmlns="http://www.w3.org/2000/svg"><path data-name="Icon zocial-facebook" d="M0 9.064V5.841h2.9V4.22a4 4 0 011.272-2.988A4.268 4.268 0 017.256 0h2.887v3.224H7.256a.651.651 0 00-.513.276 1.049 1.049 0 00-.226.684V5.84h3.626v3.224H6.521v7.816H2.902V9.064z" fill="red"/></symbol><symbol viewBox="0 0 16 16" id="instagram" xmlns="http://www.w3.org/2000/svg"><path d="M16 4.7C15.9 1.8 14.3.2 11.3.1 10.4 0 10.2 0 8 0H4.7C1.8.2.2 1.8 0 4.7v6.6c.1 2.9 1.7 4.5 4.7 4.7h6.6c2.9-.1 4.5-1.7 4.7-4.7V4.7zm-8 6c-1.5 0-2.7-1.2-2.7-2.7 0-1.5 1.2-2.7 2.7-2.7s2.7 1.2 2.7 2.7c0 1.5-1.2 2.7-2.7 2.7zm4.3-6c-.5 0-1-.4-1-1s.4-1 1-1c.5 0 1 .4 1 1-.1.6-.5 1-1 1z" fill="#fff"/></symbol><symbol viewBox="0 0 24 24" id="youtube" xmlns="http://www.w3.org/2000/svg"><style>.cst1{fill:#837272}</style><path class="cst1" d="M12 24C5.4 24 0 18.6 0 12S5.4 0 12 0s12 5.4 12 12-5.4 12-12 12zm0-23C5.9 1 1 5.9 1 12s4.9 11 11 11 11-4.9 11-11S18.1 1 12 1z"/><path class="cst1" d="M17.9 8.4c-.1-.6-.5-1-1.1-1.3-1.6-.2-3.2-.3-4.7-.3-1.6 0-3.2.1-4.7.3-.5.2-.9.7-1.1 1.3-.2 1.2-.3 2.3-.3 3.5 0 1.2.1 2.3.3 3.5.1.6.5 1 1.1 1.3 1.6.2 3.2.3 4.7.3 1.6 0 3.2-.1 4.7-.3.5-.2.9-.7 1.1-1.3.2-1.2.3-2.3.3-3.5-.1-1.2-.1-2.4-.3-3.5zm-7 5.6V9.7l3.2 2.2-3.2 2.1z"/></symbol></svg>