<?xml version="1.0" encoding="iso-8859-1"?>
<!-- Generator: Adobe Illustrator 21.0.1, SVG Export Plug-In . SVG Version: 6.00 Build 0)  -->
<svg version="1.1" id="&#x421;&#x43B;&#x43E;&#x439;_1"
	 xmlns="http://www.w3.org/2000/svg" xmlns:xlink="http://www.w3.org/1999/xlink" x="0px" y="0px" viewBox="0 0 800 600"
	 style="enable-background:new 0 0 800 600;" xml:space="preserve">
<g>
	<polygon points="192.644,267.28 194.763,273 211.363,264.55 	"/>
	<polygon points="196.883,278.72 202.203,282.52 213.684,269.268 	"/>
	<polygon points="192.644,261.92 192.644,267.28 211.363,264.55 	"/>
	<polygon points="212.523,266.909 211.363,264.55 194.763,273 213.684,269.268 	"/>
	<polygon points="194.763,273 196.883,278.72 213.684,269.268 	"/>
	<polygon points="211.363,261.911 211.363,259.272 192.644,261.92 211.363,264.55 	"/>
	<polygon points="204.483,239.68 198.563,248.12 216.483,252.158 	"/>
	<polygon points="192.644,256.56 192.644,261.92 211.363,259.272 	"/>
	<polygon points="220.643,250.199 224.803,248.24 204.483,239.68 216.483,252.158 	"/>
	<polygon points="198.563,248.12 192.644,256.56 211.363,259.272 	"/>
	<polygon points="214.643,235.08 204.483,239.68 224.803,248.24 	"/>
	<polygon points="213.923,255.715 216.483,252.158 198.563,248.12 211.363,259.272 	"/>
	<polygon points="240.648,281.505 226.101,293.96 247.606,291.268 	"/>
	<polygon points="217.086,271.146 213.684,269.268 202.203,282.52 220.488,273.025 	"/>
	<polygon points="230.972,298.847 235.843,303.735 247.606,291.268 	"/>
	<polygon points="230.568,277.265 226.101,293.96 240.648,281.505 	"/>
	<polygon points="235.843,303.735 254.563,301.03 247.606,291.268 	"/>
	<polygon points="226.101,293.96 230.972,298.847 247.606,291.268 	"/>
	<polygon points="207.523,286.32 216.812,290.14 220.488,273.025 	"/>
	<polygon points="202.203,282.52 207.523,286.32 220.488,273.025 	"/>
	<polygon points="220.488,273.025 216.812,290.14 230.568,277.265 	"/>
	<polygon points="216.812,290.14 226.101,293.96 230.568,277.265 	"/>
	<polygon points="223.204,338.64 233.124,333.959 223.204,320.88 	"/>
	<polygon points="227.164,318.877 223.204,320.88 233.124,333.959 231.124,316.875 	"/>
	<polygon points="200.323,314.56 196.963,315.6 195.363,318.88 193.763,322.16 203.684,313.52 	"/>
	<polygon points="209.763,333.84 223.204,338.64 223.204,320.88 	"/>
	<polygon points="243.043,329.278 248.803,320.995 231.124,316.875 	"/>
	<polygon points="233.124,333.959 243.043,329.278 231.124,316.875 	"/>
	<polygon points="233.483,313.43 231.124,316.875 248.803,320.995 235.843,309.985 	"/>
	<polygon points="193.763,322.16 195.043,325.6 196.323,329.04 203.684,313.52 	"/>
	<polygon points="213.444,317.2 209.763,333.84 223.204,320.88 	"/>
	<polygon points="224.803,230.48 214.643,235.08 224.803,248.24 	"/>
	<polygon points="196.323,329.04 209.763,333.84 213.444,317.2 	"/>
	<polygon points="203.684,313.52 196.323,329.04 213.444,317.2 	"/>
	<polygon points="235.843,306.86 235.843,309.985 254.563,301.03 235.843,303.735 	"/>
	<polygon points="242.403,254.48 249.923,239.12 233.603,251.36 	"/>
	<polygon points="249.923,239.12 237.363,234.8 233.603,251.36 	"/>
	<polygon points="248.963,252.4 249.923,239.12 242.403,254.48 	"/>
	<polygon points="237.363,234.8 224.803,230.48 224.803,248.24 	"/>
	<polygon points="248.803,320.995 254.563,312.712 235.843,309.985 	"/>
	<polygon points="233.603,251.36 237.363,234.8 224.803,248.24 	"/>
	<polygon points="252.243,244.04 252.323,242.24 251.123,240.68 249.923,239.12 252.164,245.84 	"/>
	<polygon points="254.563,312.712 254.563,306.871 254.563,301.03 235.843,309.985 	"/>
	<polygon points="244.363,254.56 246.323,254.64 247.643,253.52 248.963,252.4 242.403,254.48 	"/>
	<polygon points="250.563,249.12 252.164,245.84 249.923,239.12 248.963,252.4 	"/>
	<polygon points="325.175,333.03 327.8,335.115 330.425,337.2 332.938,307.565 	"/>
	<polygon points="339.335,337.2 341.88,334.931 344.425,332.663 332.938,307.565 	"/>
	<polygon points="330.425,337.2 334.88,337.2 339.335,337.2 332.938,307.565 	"/>
	<polygon points="317.593,260.79 314.775,258.32 310.575,282.753 320.41,263.26 	"/>
	<polygon points="320.41,263.26 310.575,282.753 326.674,285.413 	"/>
	<polygon points="317.875,307.891 325.175,333.03 332.938,307.565 	"/>
	<polygon points="310.575,282.753 317.875,307.891 326.674,285.413 	"/>
	<polygon points="340.038,261.03 357.385,262.263 353.6,257.2 	"/>
	<polygon points="344.425,332.663 350.905,297.463 332.938,307.565 	"/>
	<polygon points="349.184,257.2 344.768,257.2 342.403,259.115 340.038,261.03 353.6,257.2 	"/>
	<polygon points="356.835,258.735 355.218,257.968 353.6,257.2 357.385,262.263 357.11,260.499 	"/>
	<polygon points="336.488,284.298 357.385,262.263 340.038,261.03 	"/>
	<polygon points="332.938,307.565 350.905,297.463 336.488,284.298 	"/>
	<polygon points="350.905,297.463 357.385,262.263 336.488,284.298 	"/>
	<polygon points="326.674,285.413 317.875,307.891 332.938,307.565 	"/>
	<polygon points="265.123,262.64 271.601,297.68 281.585,261.92 	"/>
	<polygon points="281.585,261.92 271.601,297.68 285.151,284.727 	"/>
	<polygon points="271.601,297.68 278.08,332.72 288.717,307.533 	"/>
	<polygon points="279.212,259.56 276.84,257.2 265.123,262.64 281.585,261.92 	"/>
	<polygon points="285.151,284.727 271.601,297.68 288.717,307.533 	"/>
	<polygon points="310.833,258.32 306.89,258.32 310.575,282.753 314.775,258.32 	"/>
	<polygon points="267.375,258.04 265.772,258.88 265.448,260.76 265.123,262.64 268.978,257.2 	"/>
	<polygon points="272.909,257.2 268.978,257.2 265.123,262.64 276.84,257.2 	"/>
	<polygon points="282.865,337.2 286.976,337.2 291.087,337.2 288.717,307.533 	"/>
	<polygon points="294.986,285.08 310.575,282.753 301.255,262.628 	"/>
	<polygon points="278.08,332.72 280.472,334.96 282.865,337.2 288.717,307.533 	"/>
	<polygon points="304.073,260.474 301.255,262.628 310.575,282.753 306.89,258.32 	"/>
	<polygon points="288.717,307.533 303.374,307.552 294.986,285.08 	"/>
	<polygon points="303.374,307.552 310.575,282.753 294.986,285.08 	"/>
	<polygon points="296.172,332.352 303.374,307.552 288.717,307.533 	"/>
	<polygon points="291.087,337.2 293.63,334.776 296.172,332.352 288.717,307.533 	"/>
	<polygon points="406.082,315.64 404.162,318.56 421.241,323.08 408.001,312.72 	"/>
	<polygon points="421.241,323.08 426.562,315.44 408.001,312.72 	"/>
	<polygon points="426.562,315.44 426.562,297.2 408.001,312.72 	"/>
	<polygon points="406.681,334.68 415.921,330.72 404.162,318.56 	"/>
	<polygon points="400.802,320.12 397.441,321.68 406.681,334.68 404.162,318.56 	"/>
	<polygon points="408.001,307.12 408.001,312.72 426.562,297.2 408.001,301.52 	"/>
	<polygon points="415.921,330.72 421.241,323.08 404.162,318.56 	"/>
	<polygon points="382.562,277.84 390.001,275.36 376.162,262.8 	"/>
	<polygon points="376.001,275.44 379.281,276.64 382.562,277.84 376.162,262.8 	"/>
	<polygon points="408.001,301.52 426.562,297.2 408.001,288.08 	"/>
	<polygon points="376.162,262.8 390.001,275.36 386.802,259.28 	"/>
	<polygon points="397.441,338.64 406.681,334.68 397.441,321.68 	"/>
	<polygon points="374.842,264.2 373.521,265.6 373.481,267.48 373.441,269.36 376.162,262.8 	"/>
	<polygon points="408.001,284.88 408.001,288.08 426.562,297.2 408.001,281.68 	"/>
	<polygon points="426.562,297.2 426.562,278.96 408.001,281.68 	"/>
	<polygon points="373.441,269.36 374.721,272.4 376.001,275.44 376.162,262.8 	"/>
	<polygon points="372.802,300.16 368.802,306.16 386.881,309.04 	"/>
	<polygon points="368.802,306.16 368.802,310.8 386.881,309.04 	"/>
	<polygon points="388.281,306.52 389.682,304 372.802,300.16 386.881,309.04 	"/>
	<polygon points="384.082,291.12 376.802,294.16 389.682,304 	"/>
	<polygon points="388.362,334.68 397.441,338.64 397.441,321.68 	"/>
	<polygon points="376.802,294.16 372.802,300.16 389.682,304 	"/>
	<polygon points="386.881,310.88 386.881,309.04 368.802,310.8 386.881,312.72 	"/>
	<polygon points="392.442,302.76 395.202,301.52 384.082,291.12 389.682,304 	"/>
	<polygon points="379.282,330.72 388.362,334.68 390.802,318.56 	"/>
	<polygon points="394.122,320.12 390.802,318.56 388.362,334.68 397.441,321.68 	"/>
	<polygon points="374.042,323.08 379.282,330.72 390.802,318.56 	"/>
	<polygon points="368.802,310.8 368.802,315.44 386.881,312.72 	"/>
	<polygon points="388.842,315.64 386.881,312.72 374.042,323.08 390.802,318.56 	"/>
	<polygon points="368.802,315.44 374.042,323.08 386.881,312.72 	"/>
	<polygon points="408.001,281.68 426.562,278.96 421.241,271.28 	"/>
	<polygon points="404.162,275.92 406.082,278.8 408.001,281.68 421.241,271.28 	"/>
	<polygon points="408.001,301.52 408.001,288.08 401.602,301.52 	"/>
	<polygon points="391.361,288.08 384.082,291.12 395.202,301.52 	"/>
	<polygon points="408.001,288.08 399.681,288.08 401.602,301.52 	"/>
	<polygon points="386.802,259.28 390.001,275.36 397.441,255.76 	"/>
	<polygon points="401.602,301.52 399.681,288.08 395.202,301.52 	"/>
	<polygon points="399.681,288.08 391.361,288.08 395.202,301.52 	"/>
	<polygon points="390.001,275.36 397.441,272.88 397.441,255.76 	"/>
	<polygon points="397.441,255.76 397.441,272.88 406.681,259.68 	"/>
	<polygon points="415.921,263.6 404.162,275.92 421.241,271.28 	"/>
	<polygon points="397.441,272.88 400.802,274.4 404.162,275.92 406.681,259.68 	"/>
	<polygon points="406.681,259.68 404.162,275.92 415.921,263.6 	"/>
	<polygon points="462.839,259.88 472.959,272.72 471.839,255.92 	"/>
	<polygon points="466.239,276.16 469.599,274.44 472.959,272.72 462.839,259.88 	"/>
	<polygon points="472.959,272.72 475.199,272.96 477.439,273.2 471.839,255.92 	"/>
	<polygon points="477.439,273.2 480.079,271.52 482.719,269.84 480.639,257.2 	"/>
	<polygon points="480.639,257.2 482.719,269.84 483.279,266.16 483.839,262.48 482.239,259.84 	"/>
	<polygon points="476.239,256.56 471.839,255.92 477.439,273.2 480.639,257.2 	"/>
	<polygon points="453.839,263.84 466.239,276.16 462.839,259.88 	"/>
	<polygon points="462.399,333.04 462.399,307.76 443.839,306.32 	"/>
	<polygon points="447.999,337.2 462.399,333.04 443.839,333.04 	"/>
	<polygon points="444.439,334.52 445.039,336 446.519,336.6 447.999,337.2 443.839,333.04 	"/>
	<polygon points="453.119,337.2 458.239,337.2 462.399,333.04 447.999,337.2 	"/>
	<polygon points="459.719,336.6 461.199,336 461.799,334.52 462.399,333.04 458.239,337.2 	"/>
	<polygon points="448.839,271.72 466.239,276.16 453.839,263.84 	"/>
	<polygon points="443.839,333.04 462.399,333.04 443.839,306.32 	"/>
	<polygon points="443.839,279.6 462.399,282.48 448.839,271.72 	"/>
	<polygon points="462.399,282.48 464.319,279.32 466.239,276.16 448.839,271.72 	"/>
	<polygon points="443.839,306.32 462.399,282.48 443.839,279.6 	"/>
	<polygon points="462.399,307.76 462.399,282.48 443.839,306.32 	"/>
	<polygon points="536.159,269.04 534.958,258.4 531.999,273.2 	"/>
	<polygon points="499.679,318.8 503.599,325.52 518.238,315.92 	"/>
	<polygon points="499.679,296 499.679,318.8 518.238,315.92 	"/>
	<polygon points="503.599,325.52 507.519,332.24 520.718,319.68 	"/>
	<polygon points="518.238,294.56 499.679,296 518.238,315.92 	"/>
	<polygon points="519.478,317.8 518.238,315.92 503.599,325.52 520.718,319.68 	"/>
	<polygon points="499.679,257.2 499.679,273.2 518.238,273.2 	"/>
	<polygon points="518.238,257.2 499.679,257.2 518.238,273.2 	"/>
	<polygon points="499.679,273.2 499.679,296 518.238,294.56 	"/>
	<polygon points="518.238,273.2 499.679,273.2 518.238,294.56 	"/>
	<polygon points="507.519,332.24 515.118,335.44 520.718,319.68 	"/>
	<polygon points="532.598,321.16 530.878,320.88 533.119,336.56 534.318,321.44 	"/>
	<polygon points="533.119,336.56 534.958,334.08 536.798,331.6 534.318,321.44 	"/>
	<polygon points="535.999,324.24 535.158,322.84 534.318,321.44 536.798,331.6 536.398,327.92 	"/>
	<polygon points="527.918,337.6 533.119,336.56 530.878,320.88 	"/>
	<polygon points="522.758,320.68 520.718,319.68 515.118,335.44 524.798,321.68 	"/>
	<polygon points="515.118,335.44 522.718,338.64 524.798,321.68 	"/>
	<polygon points="525.118,273.2 518.238,257.2 518.238,273.2 	"/>
	<polygon points="527.838,321.28 524.798,321.68 527.918,337.6 530.878,320.88 	"/>
	<polygon points="490.039,257.8 488.559,258.4 487.958,259.88 487.358,261.36 491.519,257.2 	"/>
	<polygon points="522.718,338.64 527.918,337.6 524.798,321.68 	"/>
	<polygon points="508.958,237.36 503.838,237.36 499.679,241.52 514.079,237.36 	"/>
	<polygon points="495.599,257.2 491.519,257.2 499.679,273.2 499.679,257.2 	"/>
	<polygon points="502.358,237.92 500.878,238.48 500.279,240 499.679,241.52 503.838,237.36 	"/>
	<polygon points="515.559,237.96 514.079,237.36 499.679,241.52 517.039,238.56 	"/>
	<polygon points="525.118,257.2 518.238,257.2 525.118,273.2 	"/>
	<polygon points="517.638,240.04 517.039,238.56 499.679,241.52 518.238,241.52 	"/>
	<polygon points="491.519,273.2 495.599,273.2 499.679,273.2 491.519,257.2 	"/>
	<polygon points="487.358,261.36 487.358,265.2 487.358,269.04 487.958,270.52 488.559,272 491.519,257.2 	"/>
	<polygon points="488.559,272 490.039,272.6 491.519,273.2 491.519,257.2 	"/>
	<polygon points="534.958,258.4 533.479,257.8 531.999,257.2 531.999,273.2 	"/>
	<polygon points="531.999,273.2 525.118,257.2 525.118,273.2 	"/>
	<polygon points="531.999,257.2 525.118,257.2 531.999,273.2 	"/>
	<polygon points="499.679,241.52 499.679,249.36 518.238,241.52 	"/>
	<polygon points="533.438,272.56 534.878,271.92 535.519,270.48 536.159,269.04 531.999,273.2 	"/>
	<polygon points="518.238,241.52 499.679,249.36 518.238,249.36 	"/>
	<polygon points="499.679,249.36 499.679,257.2 518.238,249.36 	"/>
	<polygon points="536.159,265.2 536.159,261.36 535.559,259.88 534.958,258.4 536.159,269.04 	"/>
	<polygon points="518.238,249.36 499.679,257.2 518.238,257.2 	"/>
	<polygon points="568.516,334.72 577.276,338.64 578.556,321.68 	"/>
	<polygon points="575.276,320.08 571.996,318.48 568.516,334.72 578.556,321.68 	"/>
	<polygon points="559.756,330.8 568.516,334.72 571.996,318.48 	"/>
	<polygon points="577.276,338.64 583.036,335.76 578.556,321.68 	"/>
	<polygon points="549.596,288.16 549.596,314.959 568.156,312.56 	"/>
	<polygon points="568.156,312.56 549.596,314.959 570.076,315.52 	"/>
	<polygon points="583.036,335.76 588.796,332.88 585.036,318.48 	"/>
	<polygon points="549.596,314.959 554.676,322.88 570.076,315.52 	"/>
	<polygon points="568.156,286.96 549.596,288.16 568.156,312.56 	"/>
	<polygon points="554.676,322.88 559.756,330.8 571.996,318.48 	"/>
	<polygon points="570.076,315.52 554.676,322.88 571.996,318.48 	"/>
	<polygon points="589.996,258.32 589.396,259.84 588.796,261.36 606.156,258.32 	"/>
	<polygon points="592.956,257.2 591.476,257.76 589.996,258.32 606.156,258.32 	"/>
	<polygon points="606.756,259.84 606.156,258.32 588.796,261.36 607.356,261.36 	"/>
	<polygon points="588.796,286.96 607.356,303.12 607.356,261.36 	"/>
	<polygon points="586.916,315.52 585.036,318.48 588.796,332.88 588.796,312.56 	"/>
	<polygon points="588.796,261.36 588.796,286.96 607.356,261.36 	"/>
	<polygon points="604.676,257.76 603.196,257.2 598.076,257.2 592.956,257.2 606.156,258.32 	"/>
	<polygon points="607.356,344.88 607.356,303.12 588.796,312.56 	"/>
	<polygon points="588.796,332.88 607.356,344.88 588.796,312.56 	"/>
	<polygon points="588.796,312.56 607.356,303.12 588.796,286.96 	"/>
	<polygon points="581.796,320.08 578.556,321.68 583.036,335.76 585.036,318.48 	"/>
	<polygon points="570.636,349.6 566.956,365.52 577.916,352.4 	"/>
	<polygon points="566.956,365.52 578.076,369.52 577.916,352.4 	"/>
	<polygon points="578.076,369.52 587.596,365.56 577.916,352.4 	"/>
	<polygon points="587.596,365.56 597.116,361.6 584.796,349.2 	"/>
	<polygon points="584.796,349.2 597.116,361.6 586.796,346.16 	"/>
	<polygon points="581.356,350.8 577.916,352.4 587.596,365.56 584.796,349.2 	"/>
	<polygon points="549.596,261.36 549.596,288.16 568.156,286.96 	"/>
	<polygon points="553.916,355.44 554.876,358.48 555.836,361.52 563.356,346.8 	"/>
	<polygon points="563.356,346.8 555.836,361.52 570.636,349.6 	"/>
	<polygon points="555.836,361.52 566.956,365.52 570.636,349.6 	"/>
	<polygon points="560.076,347.76 556.796,348.72 555.356,352.08 553.916,355.44 563.356,346.8 	"/>
	<polygon points="567.556,259.84 566.956,258.32 565.476,257.76 563.996,257.2 568.156,261.36 	"/>
	<polygon points="563.996,257.2 558.876,257.2 553.756,257.2 568.156,261.36 	"/>
	<polygon points="553.756,257.2 552.276,257.76 550.796,258.32 568.156,261.36 	"/>
	<polygon points="568.156,261.36 549.596,261.36 568.156,286.96 	"/>
	<polygon points="550.796,258.32 550.196,259.84 549.596,261.36 568.156,261.36 	"/>
	<polygon points="588.796,343.12 607.356,344.88 588.796,338 	"/>
	<polygon points="602.236,353.24 607.356,344.88 588.796,343.12 	"/>
	<polygon points="586.796,346.16 602.236,353.24 588.796,343.12 	"/>
	<polygon points="588.796,338 607.356,344.88 588.796,332.88 	"/>
	<polygon points="597.116,361.6 602.236,353.24 586.796,346.16 	"/>
</g>
</svg>
